<ttFont>
    <TTGlyph name=".notdef" xMin="50" yMin="-250" xMax="450" yMax="750">
      <contour>
        <pt x="50" y="-250" on="1"/>
        <pt x="450" y="-250" on="1"/>
        <pt x="450" y="750" on="1"/>
        <pt x="50" y="750" on="1"/>
      </contour>
      <contour>
        <pt x="100" y="-200" on="1"/>
        <pt x="100" y="700" on="1"/>
        <pt x="400" y="700" on="1"/>
        <pt x="400" y="-200" on="1"/>
      </contour>
    </TTGlyph>
    <TTGlyph name="Euro" xMin="49" yMin="-36" xMax="499" yMax="643">
      <contour>
        <pt x="49" y="206" on="1"/>
        <pt x="64" y="263" on="1"/>
        <pt x="136" y="263" on="1"/>
        <pt x="133" y="288" on="0"/>
        <pt x="133" y="313" on="1"/>
        <pt x="133" y="329" on="0"/>
        <pt x="134" y="345" on="1"/>
        <pt x="73" y="345" on="1"/>
        <pt x="88" y="402" on="1"/>
        <pt x="145" y="402" on="1"/>
        <pt x="163" y="468" on="0"/>
        <pt x="254" y="578" on="0"/>
        <pt x="400" y="643" on="0"/>
        <pt x="499" y="643" on="1"/>
        <pt x="499" y="586" on="1"/>
        <pt x="417" y="586" on="0"/>
        <pt x="298" y="536" on="0"/>
        <pt x="222" y="452" on="0"/>
        <pt x="205" y="402" on="1"/>
        <pt x="450" y="402" on="1"/>
        <pt x="435" y="345" on="1"/>
        <pt x="192" y="345" on="1"/>
        <pt x="190" y="329" on="0"/>
        <pt x="190" y="313" on="1"/>
        <pt x="190" y="288" on="0"/>
        <pt x="195" y="263" on="1"/>
        <pt x="425" y="263" on="1"/>
        <pt x="410" y="206" on="1"/>
        <pt x="211" y="206" on="1"/>
        <pt x="230" y="158" on="0"/>
        <pt x="306" y="75" on="0"/>
        <pt x="420" y="23" on="0"/>
        <pt x="499" y="21" on="1"/>
        <pt x="499" y="-36" on="1"/>
        <pt x="402" y="-36" on="0"/>
        <pt x="260" y="32" on="0"/>
        <pt x="170" y="143" on="0"/>
        <pt x="149" y="206" on="1"/>
      </contour>
    </TTGlyph>
    <TTGlyph name="arrowboth" xMin="24" yMin="77" xMax="705" yMax="482">
      <contour>
        <pt x="227" y="77" on="1"/>
        <pt x="24" y="279" on="1"/>
        <pt x="228" y="482" on="1"/>
        <pt x="268" y="441" on="1"/>
        <pt x="134" y="308" on="1"/>
        <pt x="596" y="308" on="1"/>
        <pt x="462" y="441" on="1"/>
        <pt x="502" y="482" on="1"/>
        <pt x="677" y="308" on="1"/>
        <pt x="677" y="308" on="1"/>
        <pt x="677" y="307" on="1"/>
        <pt x="705" y="280" on="1"/>
        <pt x="677" y="252" on="1"/>
        <pt x="677" y="251" on="1"/>
        <pt x="675" y="251" on="1"/>
        <pt x="501" y="77" on="1"/>
        <pt x="461" y="118" on="1"/>
        <pt x="595" y="251" on="1"/>
        <pt x="134" y="251" on="1"/>
        <pt x="268" y="118" on="1"/>
      </contour>
    </TTGlyph>
    <TTGlyph name="arrowdown" xMin="81" yMin="-29" xMax="548" yMax="556">
      <contour>
        <pt x="315" y="-29" on="1"/>
        <pt x="81" y="205" on="1"/>
        <pt x="122" y="246" on="1"/>
        <pt x="286" y="81" on="1"/>
        <pt x="286" y="556" on="1"/>
        <pt x="343" y="556" on="1"/>
        <pt x="343" y="79" on="1"/>
        <pt x="508" y="244" on="1"/>
        <pt x="548" y="204" on="1"/>
      </contour>
    </TTGlyph>
    <TTGlyph name="arrowleft" xMin="21" yMin="54" xMax="605" yMax="520">
      <contour>
        <pt x="255" y="54" on="1"/>
        <pt x="21" y="286" on="1"/>
        <pt x="256" y="520" on="1"/>
        <pt x="296" y="480" on="1"/>
        <pt x="131" y="315" on="1"/>
        <pt x="605" y="315" on="1"/>
        <pt x="605" y="258" on="1"/>
        <pt x="131" y="258" on="1"/>
        <pt x="296" y="94" on="1"/>
      </contour>
    </TTGlyph>
    <TTGlyph name="arrowright" xMin="33" yMin="54" xMax="617" yMax="520">
      <contour>
        <pt x="33" y="258" on="1"/>
        <pt x="33" y="315" on="1"/>
        <pt x="508" y="315" on="1"/>
        <pt x="342" y="480" on="1"/>
        <pt x="383" y="520" on="1"/>
        <pt x="617" y="288" on="1"/>
        <pt x="382" y="54" on="1"/>
        <pt x="341" y="94" on="1"/>
        <pt x="506" y="258" on="1"/>
      </contour>
    </TTGlyph>
    <TTGlyph name="arrowup" xMin="81" yMin="0" xMax="548" yMax="583">
      <contour>
        <pt x="286" y="0" on="1"/>
        <pt x="286" y="474" on="1"/>
        <pt x="122" y="309" on="1"/>
        <pt x="81" y="349" on="1"/>
        <pt x="314" y="583" on="1"/>
        <pt x="548" y="348" on="1"/>
        <pt x="508" y="308" on="1"/>
        <pt x="343" y="473" on="1"/>
        <pt x="343" y="0" on="1"/>
      </contour>
    </TTGlyph>
    <TTGlyph name="arrowupdn" xMin="113" yMin="-50" xMax="517" yMax="589">
      <contour>
        <pt x="315" y="-50" on="1"/>
        <pt x="113" y="153" on="1"/>
        <pt x="153" y="194" on="1"/>
        <pt x="287" y="59" on="1"/>
        <pt x="287" y="480" on="1"/>
        <pt x="153" y="345" on="1"/>
        <pt x="113" y="386" on="1"/>
        <pt x="314" y="589" on="1"/>
        <pt x="517" y="385" on="1"/>
        <pt x="477" y="345" on="1"/>
        <pt x="344" y="478" on="1"/>
        <pt x="344" y="59" on="1"/>
        <pt x="477" y="193" on="1"/>
        <pt x="517" y="153" on="1"/>
      </contour>
    </TTGlyph>
    <TTGlyph name="asciicircum" xMin="67" yMin="341" xMax="422" yMax="603">
      <contour>
        <pt x="67" y="341" on="1"/>
        <pt x="218" y="603" on="1"/>
        <pt x="266" y="603" on="1"/>
        <pt x="422" y="341" on="1"/>
        <pt x="364" y="341" on="1"/>
        <pt x="243" y="550" on="1"/>
        <pt x="125" y="341" on="1"/>
      </contour>
    </TTGlyph>
    <TTGlyph name="asterisk" xMin="53" yMin="317" xMax="385" yMax="670">
      <contour>
        <pt x="232" y="472" on="1"/>
        <pt x="246" y="317" on="1"/>
        <pt x="193" y="317" on="1"/>
        <pt x="205" y="472" on="1"/>
        <pt x="79" y="385" on="1"/>
        <pt x="53" y="431" on="1"/>
        <pt x="192" y="495" on="1"/>
        <pt x="53" y="562" on="1"/>
        <pt x="79" y="607" on="1"/>
        <pt x="205" y="519" on="1"/>
        <pt x="193" y="670" on="1"/>
        <pt x="246" y="670" on="1"/>
        <pt x="232" y="519" on="1"/>
        <pt x="358" y="606" on="1"/>
        <pt x="385" y="560" on="1"/>
        <pt x="245" y="495" on="1"/>
        <pt x="385" y="430" on="1"/>
        <pt x="358" y="384" on="1"/>
      </contour>
    </TTGlyph>
    <TTGlyph name="backslash" xMin="128" yMin="-185" xMax="342" yMax="730">
      <contour>
        <pt x="342" y="-185" on="1"/>
        <pt x="138" y="495" on="1"/>
        <pt x="128" y="730" on="1"/>
        <pt x="332" y="50" on="1"/>
      </contour>
    </TTGlyph>
    <TTGlyph name="bar" xMin="66" yMin="17" xMax="123" yMax="483">
      <contour>
        <pt x="66" y="483" on="1"/>
        <pt x="123" y="483" on="1"/>
        <pt x="123" y="17" on="1"/>
        <pt x="66" y="17" on="1"/>
      </contour>
    </TTGlyph>
    <TTGlyph name="braceleft" xMin="35" yMin="-231" xMax="352" yMax="731">
      <contour>
        <pt x="341" y="-231" on="1"/>
        <pt x="262" y="-231" on="0"/>
        <pt x="170" y="-189" on="0"/>
        <pt x="130" y="-94" on="0"/>
        <pt x="130" y="-13" on="1"/>
        <pt x="130" y="107" on="1"/>
        <pt x="130" y="152" on="0"/>
        <pt x="118" y="201" on="0"/>
        <pt x="77" y="221" on="0"/>
        <pt x="35" y="221" on="1"/>
        <pt x="35" y="276" on="1"/>
        <pt x="77" y="276" on="0"/>
        <pt x="118" y="296" on="0"/>
        <pt x="130" y="344" on="0"/>
        <pt x="130" y="387" on="1"/>
        <pt x="130" y="513" on="1"/>
        <pt x="130" y="594" on="0"/>
        <pt x="170" y="689" on="0"/>
        <pt x="262" y="731" on="0"/>
        <pt x="341" y="731" on="1"/>
        <pt x="352" y="731" on="1"/>
        <pt x="352" y="677" on="1"/>
        <pt x="286" y="677" on="0"/>
        <pt x="216" y="648" on="0"/>
        <pt x="189" y="577" on="0"/>
        <pt x="189" y="512" on="1"/>
        <pt x="189" y="387" on="1"/>
        <pt x="189" y="328" on="0"/>
        <pt x="162" y="261" on="0"/>
        <pt x="123" y="248" on="1"/>
        <pt x="162" y="235" on="0"/>
        <pt x="189" y="167" on="0"/>
        <pt x="189" y="108" on="1"/>
        <pt x="189" y="-12" on="1"/>
        <pt x="189" y="-77" on="0"/>
        <pt x="216" y="-148" on="0"/>
        <pt x="286" y="-177" on="0"/>
        <pt x="352" y="-177" on="1"/>
        <pt x="352" y="-231" on="1"/>
      </contour>
    </TTGlyph>
    <TTGlyph name="braceright" xMin="49" yMin="-231" xMax="366" yMax="731">
      <contour>
        <pt x="49" y="-231" on="1"/>
        <pt x="49" y="-176" on="1"/>
        <pt x="114" y="-176" on="0"/>
        <pt x="185" y="-148" on="0"/>
        <pt x="212" y="-77" on="0"/>
        <pt x="212" y="-12" on="1"/>
        <pt x="212" y="108" on="1"/>
        <pt x="212" y="167" on="0"/>
        <pt x="238" y="235" on="0"/>
        <pt x="278" y="248" on="1"/>
        <pt x="239" y="261" on="0"/>
        <pt x="212" y="328" on="0"/>
        <pt x="212" y="387" on="1"/>
        <pt x="212" y="512" on="1"/>
        <pt x="212" y="577" on="0"/>
        <pt x="185" y="648" on="0"/>
        <pt x="114" y="676" on="0"/>
        <pt x="49" y="676" on="1"/>
        <pt x="49" y="731" on="1"/>
        <pt x="60" y="731" on="1"/>
        <pt x="139" y="731" on="0"/>
        <pt x="231" y="689" on="0"/>
        <pt x="270" y="594" on="0"/>
        <pt x="270" y="513" on="1"/>
        <pt x="270" y="387" on="1"/>
        <pt x="270" y="344" on="0"/>
        <pt x="283" y="296" on="0"/>
        <pt x="323" y="276" on="0"/>
        <pt x="366" y="276" on="1"/>
        <pt x="366" y="221" on="1"/>
        <pt x="323" y="221" on="0"/>
        <pt x="283" y="201" on="0"/>
        <pt x="270" y="152" on="0"/>
        <pt x="270" y="107" on="1"/>
        <pt x="270" y="-13" on="1"/>
        <pt x="270" y="-94" on="0"/>
        <pt x="231" y="-189" on="0"/>
        <pt x="139" y="-231" on="0"/>
        <pt x="60" y="-231" on="1"/>
      </contour>
    </TTGlyph>
    <TTGlyph name="bracketleft" xMin="57" yMin="-231" xMax="244" yMax="731">
      <contour>
        <pt x="57" y="-231" on="1"/>
        <pt x="57" y="731" on="1"/>
        <pt x="244" y="731" on="1"/>
        <pt x="244" y="675" on="1"/>
        <pt x="116" y="675" on="1"/>
        <pt x="116" y="-175" on="1"/>
        <pt x="244" y="-175" on="1"/>
        <pt x="244" y="-231" on="1"/>
      </contour>
    </TTGlyph>
    <TTGlyph name="bracketright" xMin="49" yMin="-231" xMax="237" yMax="731">
      <contour>
        <pt x="49" y="-231" on="1"/>
        <pt x="49" y="-175" on="1"/>
        <pt x="178" y="-175" on="1"/>
        <pt x="178" y="675" on="1"/>
        <pt x="49" y="675" on="1"/>
        <pt x="49" y="731" on="1"/>
        <pt x="237" y="731" on="1"/>
        <pt x="237" y="-231" on="1"/>
      </contour>
    </TTGlyph>
    <TTGlyph name="bullet" xMin="57" yMin="182" xMax="242" yMax="367">
      <contour>
        <pt x="149" y="182" on="1"/>
        <pt x="111" y="182" on="0"/>
        <pt x="57" y="235" on="0"/>
        <pt x="57" y="274" on="1"/>
        <pt x="57" y="312" on="0"/>
        <pt x="110" y="367" on="0"/>
        <pt x="149" y="367" on="1"/>
        <pt x="188" y="367" on="0"/>
        <pt x="242" y="312" on="0"/>
        <pt x="242" y="274" on="1"/>
        <pt x="242" y="235" on="0"/>
        <pt x="187" y="182" on="0"/>
      </contour>
    </TTGlyph>
    <TTGlyph name="colon" xMin="51" yMin="-8" xMax="148" yMax="454">
      <contour>
        <pt x="100" y="357" on="1"/>
        <pt x="78" y="357" on="0"/>
        <pt x="51" y="385" on="0"/>
        <pt x="51" y="406" on="1"/>
        <pt x="51" y="426" on="0"/>
        <pt x="79" y="454" on="0"/>
        <pt x="100" y="454" on="1"/>
        <pt x="121" y="454" on="0"/>
        <pt x="148" y="426" on="0"/>
        <pt x="148" y="406" on="1"/>
        <pt x="148" y="385" on="0"/>
        <pt x="121" y="357" on="0"/>
      </contour>
      <contour>
        <pt x="100" y="-8" on="1"/>
        <pt x="78" y="-8" on="0"/>
        <pt x="51" y="20" on="0"/>
        <pt x="51" y="40" on="1"/>
        <pt x="51" y="61" on="0"/>
        <pt x="79" y="89" on="0"/>
        <pt x="100" y="89" on="1"/>
        <pt x="121" y="89" on="0"/>
        <pt x="148" y="61" on="0"/>
        <pt x="148" y="40" on="1"/>
        <pt x="148" y="20" on="0"/>
        <pt x="121" y="-8" on="0"/>
      </contour>
    </TTGlyph>
    <TTGlyph name="comma" xMin="33" yMin="-117" xMax="142" yMax="87">
      <contour>
        <pt x="33" y="-117" on="1"/>
        <pt x="76" y="87" on="1"/>
        <pt x="142" y="87" on="1"/>
        <pt x="81" y="-117" on="1"/>
      </contour>
    </TTGlyph>
    <TTGlyph name="copyright" xMin="56" yMin="-83" xMax="794" yMax="653">
      <contour>
        <pt x="424" y="-83" on="1"/>
        <pt x="348" y="-83" on="0"/>
        <pt x="215" y="-26" on="0"/>
        <pt x="113" y="76" on="0"/>
        <pt x="56" y="209" on="0"/>
        <pt x="56" y="285" on="1"/>
        <pt x="56" y="361" on="0"/>
        <pt x="113" y="494" on="0"/>
        <pt x="215" y="596" on="0"/>
        <pt x="348" y="653" on="0"/>
        <pt x="424" y="653" on="1"/>
        <pt x="500" y="653" on="0"/>
        <pt x="634" y="596" on="0"/>
        <pt x="737" y="494" on="0"/>
        <pt x="794" y="361" on="0"/>
        <pt x="794" y="285" on="1"/>
        <pt x="794" y="209" on="0"/>
        <pt x="737" y="76" on="0"/>
        <pt x="634" y="-26" on="0"/>
        <pt x="500" y="-83" on="0"/>
      </contour>
      <contour>
        <pt x="424" y="-31" on="1"/>
        <pt x="490" y="-31" on="0"/>
        <pt x="604" y="19" on="0"/>
        <pt x="689" y="106" on="0"/>
        <pt x="737" y="220" on="0"/>
        <pt x="737" y="285" on="1"/>
        <pt x="737" y="350" on="0"/>
        <pt x="689" y="464" on="0"/>
        <pt x="604" y="551" on="0"/>
        <pt x="490" y="601" on="0"/>
        <pt x="424" y="601" on="1"/>
        <pt x="358" y="601" on="0"/>
        <pt x="245" y="551" on="0"/>
        <pt x="160" y="464" on="0"/>
        <pt x="113" y="350" on="0"/>
        <pt x="113" y="285" on="1"/>
        <pt x="113" y="220" on="0"/>
        <pt x="160" y="106" on="0"/>
        <pt x="245" y="19" on="0"/>
        <pt x="358" y="-31" on="0"/>
      </contour>
      <contour>
        <pt x="428" y="85" on="1"/>
        <pt x="371" y="85" on="0"/>
        <pt x="280" y="139" on="0"/>
        <pt x="227" y="229" on="0"/>
        <pt x="227" y="285" on="1"/>
        <pt x="227" y="340" on="0"/>
        <pt x="280" y="431" on="0"/>
        <pt x="371" y="485" on="0"/>
        <pt x="428" y="485" on="1"/>
        <pt x="484" y="485" on="0"/>
        <pt x="578" y="429" on="0"/>
        <pt x="602" y="384" on="1"/>
        <pt x="552" y="354" on="1"/>
        <pt x="536" y="387" on="0"/>
        <pt x="469" y="430" on="0"/>
        <pt x="427" y="430" on="1"/>
        <pt x="387" y="430" on="0"/>
        <pt x="322" y="391" on="0"/>
        <pt x="283" y="325" on="0"/>
        <pt x="283" y="285" on="1"/>
        <pt x="283" y="244" on="0"/>
        <pt x="322" y="179" on="0"/>
        <pt x="387" y="140" on="0"/>
        <pt x="427" y="140" on="1"/>
        <pt x="470" y="140" on="0"/>
        <pt x="539" y="186" on="0"/>
        <pt x="554" y="221" on="1"/>
        <pt x="605" y="193" on="1"/>
        <pt x="581" y="145" on="0"/>
        <pt x="486" y="85" on="0"/>
      </contour>
    </TTGlyph>
    <TTGlyph name="degree" xMin="83" yMin="437" xMax="333" yMax="686">
      <contour>
        <pt x="208" y="437" on="1"/>
        <pt x="174" y="437" on="0"/>
        <pt x="117" y="471" on="0"/>
        <pt x="83" y="528" on="0"/>
        <pt x="83" y="562" on="1"/>
        <pt x="83" y="596" on="0"/>
        <pt x="117" y="653" on="0"/>
        <pt x="174" y="686" on="0"/>
        <pt x="208" y="686" on="1"/>
        <pt x="243" y="686" on="0"/>
        <pt x="299" y="653" on="0"/>
        <pt x="333" y="596" on="0"/>
        <pt x="333" y="562" on="1"/>
        <pt x="333" y="528" on="0"/>
        <pt x="299" y="471" on="0"/>
        <pt x="243" y="437" on="0"/>
      </contour>
      <contour>
        <pt x="208" y="486" on="1"/>
        <pt x="239" y="486" on="0"/>
        <pt x="283" y="531" on="0"/>
        <pt x="283" y="561" on="1"/>
        <pt x="283" y="592" on="0"/>
        <pt x="239" y="636" on="0"/>
        <pt x="208" y="636" on="1"/>
        <pt x="178" y="636" on="0"/>
        <pt x="133" y="592" on="0"/>
        <pt x="133" y="561" on="1"/>
        <pt x="133" y="531" on="0"/>
        <pt x="178" y="486" on="0"/>
      </contour>
    </TTGlyph>
    <TTGlyph name="divide" xMin="60" yMin="85" xMax="427" yMax="487">
      <contour>
        <pt x="243" y="400" on="1"/>
        <pt x="224" y="400" on="0"/>
        <pt x="200" y="425" on="0"/>
        <pt x="200" y="444" on="1"/>
        <pt x="200" y="462" on="0"/>
        <pt x="225" y="487" on="0"/>
        <pt x="243" y="487" on="1"/>
        <pt x="262" y="487" on="0"/>
        <pt x="286" y="462" on="0"/>
        <pt x="286" y="444" on="1"/>
        <pt x="286" y="425" on="0"/>
        <pt x="262" y="400" on="0"/>
      </contour>
      <contour>
        <pt x="60" y="260" on="1"/>
        <pt x="60" y="311" on="1"/>
        <pt x="427" y="311" on="1"/>
        <pt x="427" y="260" on="1"/>
      </contour>
      <contour>
        <pt x="243" y="85" on="1"/>
        <pt x="224" y="85" on="0"/>
        <pt x="200" y="110" on="0"/>
        <pt x="200" y="129" on="1"/>
        <pt x="200" y="147" on="0"/>
        <pt x="225" y="172" on="0"/>
        <pt x="243" y="172" on="1"/>
        <pt x="262" y="172" on="0"/>
        <pt x="286" y="147" on="0"/>
        <pt x="286" y="129" on="1"/>
        <pt x="286" y="110" on="0"/>
        <pt x="262" y="85" on="0"/>
      </contour>
    </TTGlyph>
    <TTGlyph name="dollar" xMin="72" yMin="-102" xMax="525" yMax="730">
      <contour>
        <pt x="279" y="-102" on="1"/>
        <pt x="279" y="-8" on="1"/>
        <pt x="208" y="-2" on="0"/>
        <pt x="112" y="56" on="0"/>
        <pt x="72" y="101" on="1"/>
        <pt x="116" y="143" on="1"/>
        <pt x="149" y="104" on="0"/>
        <pt x="224" y="53" on="0"/>
        <pt x="279" y="47" on="1"/>
        <pt x="279" y="300" on="1"/>
        <pt x="232" y="320" on="0"/>
        <pt x="144" y="366" on="0"/>
        <pt x="88" y="431" on="0"/>
        <pt x="88" y="480" on="1"/>
        <pt x="88" y="518" on="0"/>
        <pt x="131" y="589" on="0"/>
        <pt x="216" y="638" on="0"/>
        <pt x="279" y="642" on="1"/>
        <pt x="279" y="730" on="1"/>
        <pt x="338" y="730" on="1"/>
        <pt x="338" y="641" on="1"/>
        <pt x="401" y="634" on="0"/>
        <pt x="485" y="577" on="0"/>
        <pt x="517" y="539" on="1"/>
        <pt x="470" y="503" on="1"/>
        <pt x="446" y="533" on="0"/>
        <pt x="384" y="578" on="0"/>
        <pt x="338" y="585" on="1"/>
        <pt x="338" y="345" on="1"/>
        <pt x="385" y="327" on="0"/>
        <pt x="470" y="278" on="0"/>
        <pt x="525" y="207" on="0"/>
        <pt x="525" y="154" on="1"/>
        <pt x="525" y="115" on="0"/>
        <pt x="481" y="46" on="0"/>
        <pt x="397" y="-2" on="0"/>
        <pt x="338" y="-8" on="1"/>
        <pt x="338" y="-102" on="1"/>
      </contour>
      <contour>
        <pt x="147" y="480" on="1"/>
        <pt x="147" y="452" on="0"/>
        <pt x="183" y="412" on="0"/>
        <pt x="243" y="382" on="0"/>
        <pt x="279" y="368" on="1"/>
        <pt x="279" y="587" on="1"/>
        <pt x="235" y="583" on="0"/>
        <pt x="177" y="548" on="0"/>
        <pt x="147" y="502" on="0"/>
      </contour>
      <contour>
        <pt x="464" y="154" on="1"/>
        <pt x="464" y="199" on="0"/>
        <pt x="390" y="255" on="0"/>
        <pt x="338" y="276" on="1"/>
        <pt x="338" y="47" on="1"/>
        <pt x="399" y="54" on="0"/>
        <pt x="464" y="117" on="0"/>
      </contour>
    </TTGlyph>
    <TTGlyph name="eight" xMin="57" yMin="-12" xMax="472" yMax="613">
      <contour>
        <pt x="264" y="-12" on="1"/>
        <pt x="168" y="-12" on="0"/>
        <pt x="57" y="92" on="0"/>
        <pt x="57" y="176" on="1"/>
        <pt x="57" y="215" on="0"/>
        <pt x="91" y="283" on="0"/>
        <pt x="147" y="329" on="0"/>
        <pt x="181" y="336" on="1"/>
        <pt x="157" y="344" on="0"/>
        <pt x="118" y="385" on="0"/>
        <pt x="95" y="439" on="0"/>
        <pt x="95" y="466" on="1"/>
        <pt x="95" y="505" on="0"/>
        <pt x="141" y="572" on="0"/>
        <pt x="218" y="613" on="0"/>
        <pt x="264" y="613" on="1"/>
        <pt x="311" y="613" on="0"/>
        <pt x="387" y="572" on="0"/>
        <pt x="433" y="505" on="0"/>
        <pt x="433" y="466" on="1"/>
        <pt x="433" y="439" on="0"/>
        <pt x="410" y="385" on="0"/>
        <pt x="371" y="344" on="0"/>
        <pt x="347" y="336" on="1"/>
        <pt x="381" y="329" on="0"/>
        <pt x="438" y="283" on="0"/>
        <pt x="472" y="215" on="0"/>
        <pt x="472" y="176" on="1"/>
        <pt x="472" y="92" on="0"/>
        <pt x="360" y="-12" on="0"/>
      </contour>
      <contour>
        <pt x="264" y="361" on="1"/>
        <pt x="314" y="361" on="0"/>
        <pt x="376" y="422" on="0"/>
        <pt x="376" y="466" on="1"/>
        <pt x="376" y="490" on="0"/>
        <pt x="346" y="531" on="0"/>
        <pt x="295" y="556" on="0"/>
        <pt x="264" y="556" on="1"/>
        <pt x="233" y="556" on="0"/>
        <pt x="182" y="531" on="0"/>
        <pt x="152" y="490" on="0"/>
        <pt x="152" y="466" on="1"/>
        <pt x="152" y="422" on="0"/>
        <pt x="214" y="361" on="0"/>
      </contour>
      <contour>
        <pt x="264" y="45" on="1"/>
        <pt x="330" y="45" on="0"/>
        <pt x="415" y="120" on="0"/>
        <pt x="415" y="176" on="1"/>
        <pt x="415" y="216" on="0"/>
        <pt x="369" y="276" on="0"/>
        <pt x="299" y="309" on="0"/>
        <pt x="264" y="309" on="1"/>
        <pt x="229" y="309" on="0"/>
        <pt x="160" y="276" on="0"/>
        <pt x="114" y="216" on="0"/>
        <pt x="114" y="176" on="1"/>
        <pt x="114" y="120" on="0"/>
        <pt x="198" y="45" on="0"/>
      </contour>
    </TTGlyph>
    <TTGlyph name="emdash" xMin="52" yMin="248" xMax="661" yMax="300">
      <contour>
        <pt x="52" y="248" on="1"/>
        <pt x="52" y="300" on="1"/>
        <pt x="661" y="300" on="1"/>
        <pt x="661" y="248" on="1"/>
      </contour>
    </TTGlyph>
    <TTGlyph name="endash" xMin="52" yMin="248" xMax="472" yMax="300">
      <contour>
        <pt x="52" y="248" on="1"/>
        <pt x="52" y="300" on="1"/>
        <pt x="472" y="300" on="1"/>
        <pt x="472" y="248" on="1"/>
      </contour>
    </TTGlyph>
    <TTGlyph name="equal" xMin="60" yMin="175" xMax="442" yMax="401">
      <contour>
        <pt x="60" y="350" on="1"/>
        <pt x="60" y="401" on="1"/>
        <pt x="442" y="401" on="1"/>
        <pt x="442" y="350" on="1"/>
      </contour>
      <contour>
        <pt x="60" y="175" on="1"/>
        <pt x="60" y="225" on="1"/>
        <pt x="442" y="225" on="1"/>
        <pt x="442" y="175" on="1"/>
      </contour>
    </TTGlyph>
    <TTGlyph name="exclam" xMin="64" yMin="-7" xMax="158" yMax="599">
      <contour>
        <pt x="94" y="160" on="1"/>
        <pt x="91" y="213" on="0"/>
        <pt x="85" y="332" on="0"/>
        <pt x="81" y="442" on="0"/>
        <pt x="81" y="482" on="1"/>
        <pt x="81" y="599" on="1"/>
        <pt x="140" y="599" on="1"/>
        <pt x="140" y="482" on="1"/>
        <pt x="140" y="442" on="0"/>
        <pt x="137" y="332" on="0"/>
        <pt x="131" y="213" on="0"/>
        <pt x="128" y="160" on="1"/>
      </contour>
      <contour>
        <pt x="65" y="38" on="1"/>
        <pt x="64" y="57" on="0"/>
        <pt x="89" y="84" on="0"/>
        <pt x="108" y="86" on="1"/>
        <pt x="128" y="87" on="0"/>
        <pt x="155" y="63" on="0"/>
        <pt x="157" y="43" on="1"/>
        <pt x="158" y="24" on="0"/>
        <pt x="134" y="-4" on="0"/>
        <pt x="114" y="-6" on="1"/>
        <pt x="93" y="-7" on="0"/>
        <pt x="67" y="18" on="0"/>
      </contour>
    </TTGlyph>
    <TTGlyph name="five" xMin="71" yMin="-15" xMax="467" yMax="602">
      <contour>
        <pt x="262" y="-15" on="1"/>
        <pt x="204" y="-15" on="0"/>
        <pt x="104" y="22" on="0"/>
        <pt x="71" y="43" on="1"/>
        <pt x="101" y="91" on="1"/>
        <pt x="124" y="76" on="0"/>
        <pt x="212" y="42" on="0"/>
        <pt x="262" y="42" on="1"/>
        <pt x="327" y="42" on="0"/>
        <pt x="410" y="122" on="0"/>
        <pt x="410" y="187" on="1"/>
        <pt x="410" y="255" on="0"/>
        <pt x="324" y="322" on="0"/>
        <pt x="255" y="322" on="1"/>
        <pt x="196" y="322" on="0"/>
        <pt x="93" y="293" on="1"/>
        <pt x="102" y="602" on="1"/>
        <pt x="429" y="602" on="1"/>
        <pt x="429" y="545" on="1"/>
        <pt x="158" y="545" on="1"/>
        <pt x="152" y="367" on="1"/>
        <pt x="175" y="372" on="0"/>
        <pt x="236" y="379" on="0"/>
        <pt x="255" y="379" on="1"/>
        <pt x="350" y="379" on="0"/>
        <pt x="467" y="278" on="0"/>
        <pt x="467" y="187" on="1"/>
        <pt x="467" y="127" on="0"/>
        <pt x="414" y="36" on="0"/>
        <pt x="322" y="-15" on="0"/>
      </contour>
    </TTGlyph>
    <TTGlyph name="four" xMin="37" yMin="0" xMax="466" yMax="602">
      <contour>
        <pt x="345" y="0" on="1"/>
        <pt x="345" y="148" on="1"/>
        <pt x="37" y="147" on="1"/>
        <pt x="37" y="187" on="1"/>
        <pt x="357" y="602" on="1"/>
        <pt x="402" y="602" on="1"/>
        <pt x="402" y="205" on="1"/>
        <pt x="466" y="205" on="1"/>
        <pt x="466" y="148" on="1"/>
        <pt x="402" y="148" on="1"/>
        <pt x="402" y="0" on="1"/>
      </contour>
      <contour>
        <pt x="115" y="205" on="1"/>
        <pt x="137" y="205" on="1"/>
        <pt x="345" y="205" on="1"/>
        <pt x="345" y="493" on="1"/>
      </contour>
    </TTGlyph>
    <TTGlyph name="greater" xMin="62" yMin="92" xMax="507" yMax="504">
      <contour>
        <pt x="63" y="92" on="1"/>
        <pt x="62" y="145" on="1"/>
        <pt x="443" y="301" on="1"/>
        <pt x="62" y="451" on="1"/>
        <pt x="63" y="504" on="1"/>
        <pt x="507" y="327" on="1"/>
        <pt x="507" y="275" on="1"/>
      </contour>
    </TTGlyph>
    <TTGlyph name="hyphen" xMin="65" yMin="248" xMax="427" yMax="300">
      <contour>
        <pt x="65" y="300" on="1"/>
        <pt x="427" y="300" on="1"/>
        <pt x="427" y="248" on="1"/>
        <pt x="65" y="248" on="1"/>
      </contour>
    </TTGlyph>
    <TTGlyph name="less" xMin="62" yMin="92" xMax="507" yMax="504">
      <contour>
        <pt x="506" y="92" on="1"/>
        <pt x="62" y="275" on="1"/>
        <pt x="62" y="327" on="1"/>
        <pt x="506" y="504" on="1"/>
        <pt x="507" y="451" on="1"/>
        <pt x="126" y="301" on="1"/>
        <pt x="507" y="145" on="1"/>
      </contour>
    </TTGlyph>
    <TTGlyph name="minus" xMin="67" yMin="256" xMax="427" yMax="308">
      <contour>
        <pt x="67" y="306" on="1"/>
        <pt x="335" y="308" on="1"/>
        <pt x="427" y="257" on="1"/>
        <pt x="160" y="256" on="1"/>
      </contour>
    </TTGlyph>
    <TTGlyph name="multiply" xMin="70" yMin="117" xMax="396" yMax="443">
      <contour>
        <pt x="105" y="117" on="1"/>
        <pt x="70" y="152" on="1"/>
        <pt x="198" y="279" on="1"/>
        <pt x="70" y="408" on="1"/>
        <pt x="105" y="443" on="1"/>
        <pt x="233" y="315" on="1"/>
        <pt x="361" y="442" on="1"/>
        <pt x="396" y="407" on="1"/>
        <pt x="268" y="279" on="1"/>
        <pt x="396" y="153" on="1"/>
        <pt x="361" y="118" on="1"/>
        <pt x="233" y="244" on="1"/>
      </contour>
    </TTGlyph>
    <TTGlyph name="nine" xMin="57" yMin="-27" xMax="464" yMax="621">
      <contour>
        <pt x="214" y="-27" on="1"/>
        <pt x="174" y="14" on="1"/>
        <pt x="230" y="66" on="0"/>
        <pt x="331" y="176" on="0"/>
        <pt x="364" y="239" on="1"/>
        <pt x="341" y="226" on="0"/>
        <pt x="289" y="211" on="0"/>
        <pt x="260" y="211" on="1"/>
        <pt x="203" y="211" on="0"/>
        <pt x="111" y="265" on="0"/>
        <pt x="57" y="355" on="0"/>
        <pt x="57" y="409" on="1"/>
        <pt x="57" y="470" on="0"/>
        <pt x="107" y="565" on="0"/>
        <pt x="196" y="621" on="0"/>
        <pt x="255" y="621" on="1"/>
        <pt x="313" y="621" on="0"/>
        <pt x="408" y="565" on="0"/>
        <pt x="464" y="470" on="0"/>
        <pt x="464" y="411" on="1"/>
        <pt x="464" y="330" on="0"/>
        <pt x="396" y="174" on="0"/>
        <pt x="283" y="32" on="0"/>
      </contour>
      <contour>
        <pt x="260" y="268" on="1"/>
        <pt x="301" y="268" on="0"/>
        <pt x="368" y="304" on="0"/>
        <pt x="407" y="369" on="0"/>
        <pt x="407" y="411" on="1"/>
        <pt x="407" y="455" on="0"/>
        <pt x="365" y="524" on="0"/>
        <pt x="296" y="564" on="0"/>
        <pt x="255" y="564" on="1"/>
        <pt x="190" y="564" on="0"/>
        <pt x="114" y="476" on="0"/>
        <pt x="114" y="409" on="1"/>
        <pt x="114" y="369" on="0"/>
        <pt x="154" y="305" on="0"/>
        <pt x="220" y="268" on="0"/>
      </contour>
    </TTGlyph>
    <TTGlyph name="notequal" xMin="60" yMin="76" xMax="442" yMax="483">
      <contour>
        <pt x="118" y="76" on="1"/>
        <pt x="166" y="175" on="1"/>
        <pt x="60" y="175" on="1"/>
        <pt x="60" y="225" on="1"/>
        <pt x="191" y="225" on="1"/>
        <pt x="252" y="350" on="1"/>
        <pt x="60" y="350" on="1"/>
        <pt x="60" y="401" on="1"/>
        <pt x="277" y="401" on="1"/>
        <pt x="316" y="483" on="1"/>
        <pt x="370" y="483" on="1"/>
        <pt x="331" y="401" on="1"/>
        <pt x="442" y="401" on="1"/>
        <pt x="442" y="350" on="1"/>
        <pt x="306" y="350" on="1"/>
        <pt x="245" y="225" on="1"/>
        <pt x="442" y="225" on="1"/>
        <pt x="442" y="175" on="1"/>
        <pt x="221" y="175" on="1"/>
        <pt x="172" y="76" on="1"/>
      </contour>
    </TTGlyph>
    <TTGlyph name="numbersign" xMin="64" yMin="-60" xMax="679" yMax="640">
      <contour>
        <pt x="64" y="138" on="1"/>
        <pt x="64" y="196" on="1"/>
        <pt x="202" y="196" on="1"/>
        <pt x="229" y="383" on="1"/>
        <pt x="64" y="383" on="1"/>
        <pt x="64" y="441" on="1"/>
        <pt x="237" y="441" on="1"/>
        <pt x="265" y="640" on="1"/>
        <pt x="326" y="640" on="1"/>
        <pt x="297" y="441" on="1"/>
        <pt x="481" y="441" on="1"/>
        <pt x="510" y="640" on="1"/>
        <pt x="570" y="640" on="1"/>
        <pt x="542" y="441" on="1"/>
        <pt x="679" y="441" on="1"/>
        <pt x="679" y="383" on="1"/>
        <pt x="533" y="383" on="1"/>
        <pt x="507" y="196" on="1"/>
        <pt x="679" y="196" on="1"/>
        <pt x="679" y="138" on="1"/>
        <pt x="498" y="138" on="1"/>
        <pt x="470" y="-60" on="1"/>
        <pt x="410" y="-60" on="1"/>
        <pt x="438" y="138" on="1"/>
        <pt x="254" y="138" on="1"/>
        <pt x="226" y="-60" on="1"/>
        <pt x="165" y="-60" on="1"/>
        <pt x="194" y="138" on="1"/>
      </contour>
      <contour>
        <pt x="262" y="196" on="1"/>
        <pt x="446" y="196" on="1"/>
        <pt x="473" y="383" on="1"/>
        <pt x="289" y="383" on="1"/>
      </contour>
    </TTGlyph>
    <TTGlyph name="one" xMin="63" yMin="0" xMax="314" yMax="614">
      <contour>
        <pt x="257" y="0" on="1"/>
        <pt x="257" y="519" on="1"/>
        <pt x="63" y="430" on="1"/>
        <pt x="63" y="495" on="1"/>
        <pt x="314" y="614" on="1"/>
        <pt x="314" y="0" on="1"/>
      </contour>
    </TTGlyph>
    <TTGlyph name="parenleft" xMin="51" yMin="-242" xMax="301" yMax="741">
      <contour>
        <pt x="260" y="-242" on="1"/>
        <pt x="209" y="-192" on="0"/>
        <pt x="113" y="-54" on="0"/>
        <pt x="51" y="130" on="0"/>
        <pt x="51" y="249" on="1"/>
        <pt x="51" y="369" on="0"/>
        <pt x="114" y="552" on="0"/>
        <pt x="209" y="689" on="0"/>
        <pt x="258" y="741" on="1"/>
        <pt x="300" y="696" on="1"/>
        <pt x="252" y="647" on="0"/>
        <pt x="168" y="521" on="0"/>
        <pt x="114" y="356" on="0"/>
        <pt x="114" y="250" on="1"/>
        <pt x="114" y="143" on="0"/>
        <pt x="167" y="-23" on="0"/>
        <pt x="252" y="-149" on="0"/>
        <pt x="301" y="-197" on="1"/>
      </contour>
    </TTGlyph>
    <TTGlyph name="parenright" xMin="51" yMin="-242" xMax="301" yMax="741">
      <contour>
        <pt x="93" y="-242" on="1"/>
        <pt x="51" y="-197" on="1"/>
        <pt x="100" y="-149" on="0"/>
        <pt x="185" y="-23" on="0"/>
        <pt x="238" y="143" on="0"/>
        <pt x="238" y="250" on="1"/>
        <pt x="238" y="356" on="0"/>
        <pt x="185" y="521" on="0"/>
        <pt x="100" y="647" on="0"/>
        <pt x="53" y="696" on="1"/>
        <pt x="95" y="741" on="1"/>
        <pt x="144" y="689" on="0"/>
        <pt x="239" y="552" on="0"/>
        <pt x="301" y="369" on="0"/>
        <pt x="301" y="249" on="1"/>
        <pt x="301" y="130" on="0"/>
        <pt x="239" y="-54" on="0"/>
        <pt x="143" y="-192" on="0"/>
      </contour>
    </TTGlyph>
    <TTGlyph name="percent" xMin="34" yMin="-40" xMax="813" yMax="634">
      <contour>
        <pt x="170" y="-40" on="1"/>
        <pt x="129" y="-4" on="1"/>
        <pt x="677" y="634" on="1"/>
        <pt x="719" y="599" on="1"/>
      </contour>
      <contour>
        <pt x="205" y="274" on="1"/>
        <pt x="158" y="274" on="0"/>
        <pt x="80" y="320" on="0"/>
        <pt x="34" y="397" on="0"/>
        <pt x="34" y="444" on="1"/>
        <pt x="34" y="492" on="0"/>
        <pt x="80" y="569" on="0"/>
        <pt x="158" y="614" on="0"/>
        <pt x="205" y="614" on="1"/>
        <pt x="252" y="614" on="0"/>
        <pt x="329" y="569" on="0"/>
        <pt x="375" y="492" on="0"/>
        <pt x="375" y="444" on="1"/>
        <pt x="375" y="397" on="0"/>
        <pt x="329" y="320" on="0"/>
        <pt x="252" y="274" on="0"/>
      </contour>
      <contour>
        <pt x="205" y="323" on="1"/>
        <pt x="238" y="323" on="0"/>
        <pt x="291" y="356" on="0"/>
        <pt x="323" y="411" on="0"/>
        <pt x="323" y="444" on="1"/>
        <pt x="323" y="478" on="0"/>
        <pt x="291" y="533" on="0"/>
        <pt x="238" y="565" on="0"/>
        <pt x="205" y="565" on="1"/>
        <pt x="172" y="565" on="0"/>
        <pt x="118" y="533" on="0"/>
        <pt x="86" y="478" on="0"/>
        <pt x="86" y="444" on="1"/>
        <pt x="86" y="411" on="0"/>
        <pt x="118" y="356" on="0"/>
        <pt x="172" y="323" on="0"/>
      </contour>
      <contour>
        <pt x="643" y="-23" on="1"/>
        <pt x="596" y="-23" on="0"/>
        <pt x="519" y="23" on="0"/>
        <pt x="473" y="100" on="0"/>
        <pt x="473" y="147" on="1"/>
        <pt x="473" y="194" on="0"/>
        <pt x="519" y="271" on="0"/>
        <pt x="596" y="317" on="0"/>
        <pt x="643" y="317" on="1"/>
        <pt x="690" y="317" on="0"/>
        <pt x="767" y="271" on="0"/>
        <pt x="813" y="194" on="0"/>
        <pt x="813" y="147" on="1"/>
        <pt x="813" y="100" on="0"/>
        <pt x="767" y="23" on="0"/>
        <pt x="690" y="-23" on="0"/>
      </contour>
      <contour>
        <pt x="643" y="26" on="1"/>
        <pt x="675" y="26" on="0"/>
        <pt x="729" y="58" on="0"/>
        <pt x="761" y="113" on="0"/>
        <pt x="761" y="147" on="1"/>
        <pt x="761" y="181" on="0"/>
        <pt x="729" y="236" on="0"/>
        <pt x="675" y="268" on="0"/>
        <pt x="643" y="268" on="1"/>
        <pt x="610" y="268" on="0"/>
        <pt x="556" y="236" on="0"/>
        <pt x="525" y="181" on="0"/>
        <pt x="525" y="147" on="1"/>
        <pt x="525" y="113" on="0"/>
        <pt x="557" y="58" on="0"/>
        <pt x="610" y="26" on="0"/>
      </contour>
    </TTGlyph>
    <TTGlyph name="period" xMin="52" yMin="-8" xMax="149" yMax="89">
      <contour>
        <pt x="52" y="40" on="1"/>
        <pt x="52" y="61" on="0"/>
        <pt x="80" y="89" on="0"/>
        <pt x="100" y="89" on="1"/>
        <pt x="121" y="89" on="0"/>
        <pt x="149" y="61" on="0"/>
        <pt x="149" y="40" on="1"/>
        <pt x="149" y="20" on="0"/>
        <pt x="121" y="-8" on="0"/>
        <pt x="100" y="-8" on="1"/>
        <pt x="79" y="-8" on="0"/>
        <pt x="52" y="20" on="0"/>
      </contour>
    </TTGlyph>
    <TTGlyph name="periodcentered" xMin="53" yMin="234" xMax="147" yMax="328">
      <contour>
        <pt x="54" y="278" on="1"/>
        <pt x="53" y="298" on="0"/>
        <pt x="78" y="325" on="0"/>
        <pt x="97" y="327" on="1"/>
        <pt x="117" y="328" on="0"/>
        <pt x="144" y="304" on="0"/>
        <pt x="146" y="284" on="1"/>
        <pt x="147" y="265" on="0"/>
        <pt x="122" y="236" on="0"/>
        <pt x="102" y="235" on="1"/>
        <pt x="82" y="234" on="0"/>
        <pt x="55" y="259" on="0"/>
      </contour>
    </TTGlyph>
    <TTGlyph name="plus" xMin="67" yMin="233" xMax="427" yMax="425">
      <contour>
        <pt x="67" y="233" on="1"/>
        <pt x="67" y="285" on="1"/>
        <pt x="221" y="285" on="1"/>
        <pt x="221" y="425" on="1"/>
        <pt x="273" y="425" on="1"/>
        <pt x="273" y="285" on="1"/>
        <pt x="427" y="285" on="1"/>
        <pt x="427" y="233" on="1"/>
      </contour>
    </TTGlyph>
    <TTGlyph name="question" xMin="67" yMin="-8" xMax="472" yMax="619">
      <contour>
        <pt x="232" y="165" on="1"/>
        <pt x="232" y="174" on="1"/>
        <pt x="232" y="222" on="0"/>
        <pt x="268" y="284" on="0"/>
        <pt x="322" y="328" on="0"/>
        <pt x="376" y="367" on="0"/>
        <pt x="412" y="413" on="0"/>
        <pt x="412" y="448" on="1"/>
        <pt x="412" y="480" on="0"/>
        <pt x="373" y="534" on="0"/>
        <pt x="310" y="567" on="0"/>
        <pt x="276" y="567" on="1"/>
        <pt x="221" y="567" on="0"/>
        <pt x="144" y="508" on="0"/>
        <pt x="119" y="465" on="1"/>
        <pt x="67" y="489" on="1"/>
        <pt x="85" y="524" on="0"/>
        <pt x="147" y="583" on="0"/>
        <pt x="229" y="619" on="0"/>
        <pt x="277" y="619" on="1"/>
        <pt x="328" y="619" on="0"/>
        <pt x="417" y="573" on="0"/>
        <pt x="472" y="495" on="0"/>
        <pt x="472" y="447" on="1"/>
        <pt x="472" y="403" on="0"/>
        <pt x="435" y="346" on="0"/>
        <pt x="379" y="305" on="0"/>
        <pt x="323" y="265" on="0"/>
        <pt x="285" y="214" on="0"/>
        <pt x="285" y="174" on="1"/>
        <pt x="286" y="165" on="1"/>
      </contour>
      <contour>
        <pt x="259" y="-8" on="1"/>
        <pt x="238" y="-8" on="0"/>
        <pt x="211" y="20" on="0"/>
        <pt x="211" y="40" on="1"/>
        <pt x="211" y="61" on="0"/>
        <pt x="239" y="89" on="0"/>
        <pt x="259" y="89" on="1"/>
        <pt x="281" y="89" on="0"/>
        <pt x="308" y="61" on="0"/>
        <pt x="308" y="40" on="1"/>
        <pt x="308" y="20" on="0"/>
        <pt x="281" y="-8" on="0"/>
      </contour>
    </TTGlyph>
    <TTGlyph name="quotedbl" xMin="40" yMin="364" xMax="327" yMax="599">
      <contour>
        <pt x="190" y="364" on="1"/>
        <pt x="262" y="599" on="1"/>
        <pt x="327" y="599" on="1"/>
        <pt x="242" y="364" on="1"/>
      </contour>
      <contour>
        <pt x="40" y="364" on="1"/>
        <pt x="112" y="599" on="1"/>
        <pt x="178" y="599" on="1"/>
        <pt x="93" y="364" on="1"/>
      </contour>
    </TTGlyph>
    <TTGlyph name="quotesingle" xMin="38" yMin="364" xMax="176" yMax="599">
      <contour>
        <pt x="38" y="364" on="1"/>
        <pt x="110" y="599" on="1"/>
        <pt x="176" y="599" on="1"/>
        <pt x="91" y="364" on="1"/>
      </contour>
    </TTGlyph>
    <TTGlyph name="registered" xMin="63" yMin="192" xMax="482" yMax="611">
      <contour>
        <pt x="273" y="192" on="1"/>
        <pt x="215" y="192" on="0"/>
        <pt x="120" y="248" on="0"/>
        <pt x="63" y="344" on="0"/>
        <pt x="63" y="401" on="1"/>
        <pt x="63" y="459" on="0"/>
        <pt x="120" y="554" on="0"/>
        <pt x="215" y="611" on="0"/>
        <pt x="273" y="611" on="1"/>
        <pt x="330" y="611" on="0"/>
        <pt x="426" y="554" on="0"/>
        <pt x="482" y="459" on="0"/>
        <pt x="482" y="401" on="1"/>
        <pt x="482" y="344" on="0"/>
        <pt x="425" y="248" on="0"/>
        <pt x="330" y="192" on="0"/>
      </contour>
      <contour>
        <pt x="273" y="222" on="1"/>
        <pt x="323" y="222" on="0"/>
        <pt x="402" y="271" on="0"/>
        <pt x="449" y="352" on="0"/>
        <pt x="449" y="401" on="1"/>
        <pt x="449" y="450" on="0"/>
        <pt x="402" y="532" on="0"/>
        <pt x="323" y="580" on="0"/>
        <pt x="273" y="580" on="1"/>
        <pt x="223" y="580" on="0"/>
        <pt x="143" y="532" on="0"/>
        <pt x="97" y="450" on="0"/>
        <pt x="97" y="401" on="1"/>
        <pt x="97" y="352" on="0"/>
        <pt x="143" y="271" on="0"/>
        <pt x="223" y="222" on="0"/>
      </contour>
      <contour>
        <pt x="202" y="299" on="1"/>
        <pt x="202" y="509" on="1"/>
        <pt x="277" y="509" on="1"/>
        <pt x="314" y="509" on="0"/>
        <pt x="359" y="470" on="0"/>
        <pt x="359" y="441" on="1"/>
        <pt x="359" y="417" on="0"/>
        <pt x="333" y="382" on="0"/>
        <pt x="309" y="375" on="1"/>
        <pt x="358" y="299" on="1"/>
        <pt x="323" y="299" on="1"/>
        <pt x="277" y="373" on="1"/>
        <pt x="234" y="373" on="1"/>
        <pt x="234" y="299" on="1"/>
      </contour>
      <contour>
        <pt x="234" y="396" on="1"/>
        <pt x="273" y="396" on="1"/>
        <pt x="296" y="396" on="0"/>
        <pt x="325" y="419" on="0"/>
        <pt x="325" y="439" on="1"/>
        <pt x="325" y="461" on="0"/>
        <pt x="295" y="481" on="0"/>
        <pt x="273" y="481" on="1"/>
        <pt x="234" y="481" on="1"/>
      </contour>
    </TTGlyph>
    <TTGlyph name="semicolon" xMin="33" yMin="-117" xMax="148" yMax="454">
      <contour>
        <pt x="100" y="357" on="1"/>
        <pt x="78" y="357" on="0"/>
        <pt x="51" y="385" on="0"/>
        <pt x="51" y="406" on="1"/>
        <pt x="51" y="426" on="0"/>
        <pt x="79" y="454" on="0"/>
        <pt x="100" y="454" on="1"/>
        <pt x="121" y="454" on="0"/>
        <pt x="148" y="426" on="0"/>
        <pt x="148" y="406" on="1"/>
        <pt x="148" y="385" on="0"/>
        <pt x="121" y="357" on="0"/>
      </contour>
      <contour>
        <pt x="33" y="-117" on="1"/>
        <pt x="76" y="98" on="1"/>
        <pt x="142" y="98" on="1"/>
        <pt x="81" y="-117" on="1"/>
      </contour>
    </TTGlyph>
    <TTGlyph name="seven" xMin="57" yMin="0" xMax="466" yMax="602">
      <contour>
        <pt x="209" y="0" on="1"/>
        <pt x="145" y="0" on="1"/>
        <pt x="379" y="545" on="1"/>
        <pt x="57" y="545" on="1"/>
        <pt x="57" y="602" on="1"/>
        <pt x="466" y="602" on="1"/>
      </contour>
    </TTGlyph>
    <TTGlyph name="six" xMin="57" yMin="-14" xMax="464" yMax="616">
      <contour>
        <pt x="57" y="195" on="1"/>
        <pt x="57" y="276" on="0"/>
        <pt x="123" y="422" on="0"/>
        <pt x="232" y="554" on="0"/>
        <pt x="298" y="616" on="1"/>
        <pt x="338" y="576" on="1"/>
        <pt x="296" y="536" on="0"/>
        <pt x="192" y="420" on="0"/>
        <pt x="156" y="352" on="1"/>
        <pt x="206" y="380" on="0"/>
        <pt x="260" y="380" on="1"/>
        <pt x="320" y="380" on="0"/>
        <pt x="411" y="330" on="0"/>
        <pt x="464" y="242" on="0"/>
        <pt x="464" y="186" on="1"/>
        <pt x="464" y="130" on="0"/>
        <pt x="413" y="39" on="0"/>
        <pt x="323" y="-14" on="0"/>
        <pt x="265" y="-14" on="1"/>
        <pt x="208" y="-14" on="0"/>
        <pt x="114" y="41" on="0"/>
        <pt x="57" y="136" on="0"/>
      </contour>
      <contour>
        <pt x="265" y="43" on="1"/>
        <pt x="307" y="43" on="0"/>
        <pt x="371" y="81" on="0"/>
        <pt x="407" y="146" on="0"/>
        <pt x="407" y="186" on="1"/>
        <pt x="407" y="250" on="0"/>
        <pt x="323" y="323" on="0"/>
        <pt x="260" y="323" on="1"/>
        <pt x="198" y="323" on="0"/>
        <pt x="115" y="257" on="0"/>
        <pt x="115" y="195" on="1"/>
        <pt x="115" y="151" on="0"/>
        <pt x="156" y="82" on="0"/>
        <pt x="224" y="43" on="0"/>
      </contour>
    </TTGlyph>
    <TTGlyph name="slash" xMin="23" yMin="-185" xMax="357" yMax="730">
      <contour>
        <pt x="23" y="-185" on="1"/>
        <pt x="296" y="730" on="1"/>
        <pt x="357" y="730" on="1"/>
        <pt x="85" y="-185" on="1"/>
      </contour>
    </TTGlyph>
    <TTGlyph name="three" xMin="56" yMin="-12" xMax="472" yMax="602">
      <contour>
        <pt x="256" y="-12" on="1"/>
        <pt x="200" y="-12" on="0"/>
        <pt x="93" y="24" on="0"/>
        <pt x="56" y="45" on="1"/>
        <pt x="84" y="94" on="1"/>
        <pt x="118" y="75" on="0"/>
        <pt x="209" y="45" on="0"/>
        <pt x="256" y="45" on="1"/>
        <pt x="328" y="45" on="0"/>
        <pt x="415" y="127" on="0"/>
        <pt x="415" y="188" on="1"/>
        <pt x="415" y="255" on="0"/>
        <pt x="293" y="323" on="0"/>
        <pt x="170" y="339" on="1"/>
        <pt x="351" y="520" on="1"/>
        <pt x="376" y="545" on="1"/>
        <pt x="77" y="545" on="1"/>
        <pt x="77" y="602" on="1"/>
        <pt x="452" y="602" on="1"/>
        <pt x="451" y="545" on="1"/>
        <pt x="283" y="381" on="1"/>
        <pt x="376" y="361" on="0"/>
        <pt x="472" y="264" on="0"/>
        <pt x="472" y="188" on="1"/>
        <pt x="472" y="131" on="0"/>
        <pt x="416" y="41" on="0"/>
        <pt x="318" y="-12" on="0"/>
      </contour>
    </TTGlyph>
    <TTGlyph name="trademark" xMin="41" yMin="271" xMax="624" yMax="554">
      <contour>
        <pt x="139" y="271" on="1"/>
        <pt x="139" y="514" on="1"/>
        <pt x="41" y="514" on="1"/>
        <pt x="41" y="554" on="1"/>
        <pt x="279" y="554" on="1"/>
        <pt x="279" y="514" on="1"/>
        <pt x="182" y="514" on="1"/>
        <pt x="182" y="271" on="1"/>
      </contour>
      <contour>
        <pt x="315" y="271" on="1"/>
        <pt x="315" y="553" on="1"/>
        <pt x="355" y="553" on="1"/>
        <pt x="469" y="411" on="1"/>
        <pt x="586" y="553" on="1"/>
        <pt x="624" y="553" on="1"/>
        <pt x="624" y="271" on="1"/>
        <pt x="580" y="271" on="1"/>
        <pt x="580" y="482" on="1"/>
        <pt x="469" y="350" on="1"/>
        <pt x="358" y="482" on="1"/>
        <pt x="358" y="271" on="1"/>
      </contour>
    </TTGlyph>
    <TTGlyph name="two" xMin="53" yMin="0" xMax="481" yMax="615">
      <contour>
        <pt x="76" y="0" on="1"/>
        <pt x="80" y="67" on="1"/>
        <pt x="173" y="140" on="0"/>
        <pt x="320" y="255" on="0"/>
        <pt x="405" y="360" on="0"/>
        <pt x="405" y="419" on="1"/>
        <pt x="405" y="478" on="0"/>
        <pt x="331" y="558" on="0"/>
        <pt x="268" y="557" on="1"/>
        <pt x="221" y="558" on="0"/>
        <pt x="131" y="507" on="0"/>
        <pt x="101" y="466" on="1"/>
        <pt x="53" y="496" on="1"/>
        <pt x="75" y="526" on="0"/>
        <pt x="134" y="581" on="0"/>
        <pt x="214" y="615" on="0"/>
        <pt x="268" y="614" on="1"/>
        <pt x="327" y="615" on="0"/>
        <pt x="414" y="562" on="0"/>
        <pt x="462" y="473" on="0"/>
        <pt x="462" y="419" on="1"/>
        <pt x="462" y="354" on="0"/>
        <pt x="384" y="240" on="0"/>
        <pt x="248" y="125" on="0"/>
        <pt x="161" y="57" on="1"/>
        <pt x="481" y="57" on="1"/>
        <pt x="481" y="0" on="1"/>
      </contour>
    </TTGlyph>
    <TTGlyph name="underscore" xMin="57" yMin="-7" xMax="501" yMax="44">
      <contour>
        <pt x="57" y="44" on="1"/>
        <pt x="501" y="44" on="1"/>
        <pt x="501" y="-7" on="1"/>
        <pt x="57" y="-7" on="1"/>
      </contour>
    </TTGlyph>
    <TTGlyph name="uni05B0" xMin="-35" yMin="-276" xMax="34" yMax="-91">
      <contour>
        <pt x="0" y="-161" on="1"/>
        <pt x="-15" y="-161" on="0"/>
        <pt x="-35" y="-141" on="0"/>
        <pt x="-35" y="-126" on="1"/>
        <pt x="-35" y="-112" on="0"/>
        <pt x="-15" y="-91" on="0"/>
        <pt x="0" y="-91" on="1"/>
        <pt x="14" y="-91" on="0"/>
        <pt x="34" y="-112" on="0"/>
        <pt x="34" y="-126" on="1"/>
        <pt x="34" y="-141" on="0"/>
        <pt x="14" y="-161" on="0"/>
      </contour>
      <contour>
        <pt x="0" y="-276" on="1"/>
        <pt x="-15" y="-276" on="0"/>
        <pt x="-35" y="-256" on="0"/>
        <pt x="-35" y="-241" on="1"/>
        <pt x="-35" y="-227" on="0"/>
        <pt x="-15" y="-206" on="0"/>
        <pt x="0" y="-206" on="1"/>
        <pt x="14" y="-206" on="0"/>
        <pt x="34" y="-227" on="0"/>
        <pt x="34" y="-241" on="1"/>
        <pt x="34" y="-256" on="0"/>
        <pt x="14" y="-276" on="0"/>
      </contour>
    </TTGlyph>
    <TTGlyph name="uni05B1" xMin="-150" yMin="-276" xMax="150" yMax="-91">
      <contour>
        <pt x="116" y="-161" on="1"/>
        <pt x="101" y="-161" on="0"/>
        <pt x="81" y="-141" on="0"/>
        <pt x="81" y="-126" on="1"/>
        <pt x="81" y="-112" on="0"/>
        <pt x="101" y="-91" on="0"/>
        <pt x="116" y="-91" on="1"/>
        <pt x="130" y="-91" on="0"/>
        <pt x="150" y="-112" on="0"/>
        <pt x="150" y="-126" on="1"/>
        <pt x="150" y="-141" on="0"/>
        <pt x="130" y="-161" on="0"/>
      </contour>
      <contour>
        <pt x="-115" y="-161" on="1"/>
        <pt x="-130" y="-161" on="0"/>
        <pt x="-150" y="-141" on="0"/>
        <pt x="-150" y="-126" on="1"/>
        <pt x="-150" y="-112" on="0"/>
        <pt x="-130" y="-91" on="0"/>
        <pt x="-115" y="-91" on="1"/>
        <pt x="-101" y="-91" on="0"/>
        <pt x="-81" y="-112" on="0"/>
        <pt x="-81" y="-126" on="1"/>
        <pt x="-81" y="-141" on="0"/>
        <pt x="-101" y="-161" on="0"/>
      </contour>
      <contour>
        <pt x="-1" y="-161" on="1"/>
        <pt x="-16" y="-161" on="0"/>
        <pt x="-36" y="-141" on="0"/>
        <pt x="-36" y="-126" on="1"/>
        <pt x="-36" y="-112" on="0"/>
        <pt x="-16" y="-91" on="0"/>
        <pt x="-1" y="-91" on="1"/>
        <pt x="13" y="-91" on="0"/>
        <pt x="33" y="-112" on="0"/>
        <pt x="33" y="-126" on="1"/>
        <pt x="33" y="-141" on="0"/>
        <pt x="13" y="-161" on="0"/>
      </contour>
      <contour>
        <pt x="116" y="-276" on="1"/>
        <pt x="101" y="-276" on="0"/>
        <pt x="81" y="-256" on="0"/>
        <pt x="81" y="-241" on="1"/>
        <pt x="81" y="-227" on="0"/>
        <pt x="101" y="-206" on="0"/>
        <pt x="116" y="-206" on="1"/>
        <pt x="130" y="-206" on="0"/>
        <pt x="150" y="-227" on="0"/>
        <pt x="150" y="-241" on="1"/>
        <pt x="150" y="-256" on="0"/>
        <pt x="130" y="-276" on="0"/>
      </contour>
      <contour>
        <pt x="-58" y="-276" on="1"/>
        <pt x="-73" y="-276" on="0"/>
        <pt x="-93" y="-256" on="0"/>
        <pt x="-93" y="-241" on="1"/>
        <pt x="-93" y="-227" on="0"/>
        <pt x="-73" y="-206" on="0"/>
        <pt x="-58" y="-206" on="1"/>
        <pt x="-44" y="-206" on="0"/>
        <pt x="-24" y="-227" on="0"/>
        <pt x="-24" y="-241" on="1"/>
        <pt x="-24" y="-256" on="0"/>
        <pt x="-44" y="-276" on="0"/>
      </contour>
    </TTGlyph>
    <TTGlyph name="uni05B2" xMin="-156" yMin="-276" xMax="140" yMax="-91">
      <contour>
        <pt x="106" y="-161" on="1"/>
        <pt x="91" y="-161" on="0"/>
        <pt x="71" y="-141" on="0"/>
        <pt x="71" y="-126" on="1"/>
        <pt x="71" y="-112" on="0"/>
        <pt x="91" y="-91" on="0"/>
        <pt x="106" y="-91" on="1"/>
        <pt x="120" y="-91" on="0"/>
        <pt x="140" y="-112" on="0"/>
        <pt x="140" y="-126" on="1"/>
        <pt x="140" y="-141" on="0"/>
        <pt x="120" y="-161" on="0"/>
      </contour>
      <contour>
        <pt x="-156" y="-145" on="1"/>
        <pt x="-156" y="-99" on="1"/>
        <pt x="20" y="-99" on="1"/>
        <pt x="20" y="-145" on="1"/>
      </contour>
      <contour>
        <pt x="106" y="-276" on="1"/>
        <pt x="91" y="-276" on="0"/>
        <pt x="71" y="-256" on="0"/>
        <pt x="71" y="-241" on="1"/>
        <pt x="71" y="-227" on="0"/>
        <pt x="91" y="-206" on="0"/>
        <pt x="106" y="-206" on="1"/>
        <pt x="120" y="-206" on="0"/>
        <pt x="140" y="-227" on="0"/>
        <pt x="140" y="-241" on="1"/>
        <pt x="140" y="-256" on="0"/>
        <pt x="120" y="-276" on="0"/>
      </contour>
    </TTGlyph>
    <TTGlyph name="uni05B3" xMin="-162" yMin="-276" xMax="134" yMax="-91">
      <contour>
        <pt x="101" y="-161" on="1"/>
        <pt x="86" y="-161" on="0"/>
        <pt x="66" y="-141" on="0"/>
        <pt x="66" y="-126" on="1"/>
        <pt x="66" y="-112" on="0"/>
        <pt x="86" y="-91" on="0"/>
        <pt x="101" y="-91" on="1"/>
        <pt x="115" y="-91" on="0"/>
        <pt x="134" y="-112" on="0"/>
        <pt x="134" y="-126" on="1"/>
        <pt x="134" y="-141" on="0"/>
        <pt x="115" y="-161" on="0"/>
      </contour>
      <contour>
        <pt x="-97" y="-276" on="1"/>
        <pt x="-94" y="-145" on="1"/>
        <pt x="-162" y="-145" on="1"/>
        <pt x="-162" y="-99" on="1"/>
        <pt x="14" y="-99" on="1"/>
        <pt x="14" y="-145" on="1"/>
        <pt x="-53" y="-145" on="1"/>
        <pt x="-50" y="-276" on="1"/>
      </contour>
      <contour>
        <pt x="101" y="-276" on="1"/>
        <pt x="86" y="-276" on="0"/>
        <pt x="66" y="-256" on="0"/>
        <pt x="66" y="-241" on="1"/>
        <pt x="66" y="-227" on="0"/>
        <pt x="86" y="-206" on="0"/>
        <pt x="101" y="-206" on="1"/>
        <pt x="115" y="-206" on="0"/>
        <pt x="134" y="-227" on="0"/>
        <pt x="134" y="-241" on="1"/>
        <pt x="134" y="-256" on="0"/>
        <pt x="115" y="-276" on="0"/>
      </contour>
    </TTGlyph>
    <TTGlyph name="uni05B4" xMin="-34" yMin="-160" xMax="33" yMax="-93">
      <contour>
        <pt x="0" y="-160" on="1"/>
        <pt x="-15" y="-160" on="0"/>
        <pt x="-34" y="-140" on="0"/>
        <pt x="-34" y="-126" on="1"/>
        <pt x="-34" y="-112" on="0"/>
        <pt x="-15" y="-93" on="0"/>
        <pt x="0" y="-93" on="1"/>
        <pt x="14" y="-93" on="0"/>
        <pt x="33" y="-112" on="0"/>
        <pt x="33" y="-126" on="1"/>
        <pt x="33" y="-140" on="0"/>
        <pt x="14" y="-160" on="0"/>
      </contour>
    </TTGlyph>
    <TTGlyph name="uni05B5" xMin="-112" yMin="-161" xMax="111" yMax="-91">
      <contour>
        <pt x="-77" y="-161" on="1"/>
        <pt x="-92" y="-161" on="0"/>
        <pt x="-112" y="-141" on="0"/>
        <pt x="-112" y="-126" on="1"/>
        <pt x="-112" y="-112" on="0"/>
        <pt x="-92" y="-91" on="0"/>
        <pt x="-77" y="-91" on="1"/>
        <pt x="-63" y="-91" on="0"/>
        <pt x="-43" y="-112" on="0"/>
        <pt x="-43" y="-126" on="1"/>
        <pt x="-43" y="-141" on="0"/>
        <pt x="-63" y="-161" on="0"/>
      </contour>
      <contour>
        <pt x="77" y="-161" on="1"/>
        <pt x="62" y="-161" on="0"/>
        <pt x="42" y="-141" on="0"/>
        <pt x="42" y="-126" on="1"/>
        <pt x="42" y="-112" on="0"/>
        <pt x="62" y="-91" on="0"/>
        <pt x="77" y="-91" on="1"/>
        <pt x="91" y="-91" on="0"/>
        <pt x="111" y="-112" on="0"/>
        <pt x="111" y="-126" on="1"/>
        <pt x="111" y="-141" on="0"/>
        <pt x="91" y="-161" on="0"/>
      </contour>
    </TTGlyph>
    <TTGlyph name="uni05B6" xMin="-112" yMin="-276" xMax="111" yMax="-91">
      <contour>
        <pt x="-77" y="-161" on="1"/>
        <pt x="-92" y="-161" on="0"/>
        <pt x="-112" y="-141" on="0"/>
        <pt x="-112" y="-126" on="1"/>
        <pt x="-112" y="-112" on="0"/>
        <pt x="-92" y="-91" on="0"/>
        <pt x="-77" y="-91" on="1"/>
        <pt x="-63" y="-91" on="0"/>
        <pt x="-43" y="-112" on="0"/>
        <pt x="-43" y="-126" on="1"/>
        <pt x="-43" y="-141" on="0"/>
        <pt x="-63" y="-161" on="0"/>
      </contour>
      <contour>
        <pt x="77" y="-161" on="1"/>
        <pt x="62" y="-161" on="0"/>
        <pt x="42" y="-141" on="0"/>
        <pt x="42" y="-126" on="1"/>
        <pt x="42" y="-112" on="0"/>
        <pt x="62" y="-91" on="0"/>
        <pt x="77" y="-91" on="1"/>
        <pt x="91" y="-91" on="0"/>
        <pt x="111" y="-112" on="0"/>
        <pt x="111" y="-126" on="1"/>
        <pt x="111" y="-141" on="0"/>
        <pt x="91" y="-161" on="0"/>
      </contour>
      <contour>
        <pt x="0" y="-276" on="1"/>
        <pt x="-15" y="-276" on="0"/>
        <pt x="-35" y="-256" on="0"/>
        <pt x="-35" y="-241" on="1"/>
        <pt x="-35" y="-227" on="0"/>
        <pt x="-15" y="-206" on="0"/>
        <pt x="0" y="-206" on="1"/>
        <pt x="14" y="-206" on="0"/>
        <pt x="34" y="-227" on="0"/>
        <pt x="34" y="-241" on="1"/>
        <pt x="34" y="-256" on="0"/>
        <pt x="14" y="-276" on="0"/>
      </contour>
    </TTGlyph>
    <TTGlyph name="uni05B7" xMin="-117" yMin="-145" xMax="119" yMax="-99">
      <contour>
        <pt x="-117" y="-145" on="1"/>
        <pt x="-117" y="-99" on="1"/>
        <pt x="119" y="-99" on="1"/>
        <pt x="119" y="-145" on="1"/>
      </contour>
    </TTGlyph>
    <TTGlyph name="uni05B8" xMin="-117" yMin="-252" xMax="119" yMax="-99">
      <contour>
        <pt x="-117" y="-145" on="1"/>
        <pt x="-117" y="-99" on="1"/>
        <pt x="119" y="-99" on="1"/>
        <pt x="119" y="-145" on="1"/>
        <pt x="22" y="-145" on="1"/>
        <pt x="24" y="-252" on="1"/>
        <pt x="-23" y="-252" on="1"/>
        <pt x="-20" y="-145" on="1"/>
      </contour>
    </TTGlyph>
    <TTGlyph name="uni05B8.narrow" xMin="-90" yMin="-252" xMax="92" yMax="-99">
      <contour>
        <pt x="-90" y="-145" on="1"/>
        <pt x="-90" y="-99" on="1"/>
        <pt x="92" y="-99" on="1"/>
        <pt x="92" y="-145" on="1"/>
        <pt x="22" y="-145" on="1"/>
        <pt x="24" y="-252" on="1"/>
        <pt x="-23" y="-252" on="1"/>
        <pt x="-20" y="-145" on="1"/>
      </contour>
    </TTGlyph>
    <TTGlyph name="uni05B9" xMin="-72" yMin="635" xMax="-3" yMax="705">
      <contour>
        <pt x="-37" y="635" on="1"/>
        <pt x="-52" y="635" on="0"/>
        <pt x="-72" y="656" on="0"/>
        <pt x="-72" y="670" on="1"/>
        <pt x="-72" y="684" on="0"/>
        <pt x="-52" y="705" on="0"/>
        <pt x="-37" y="705" on="1"/>
        <pt x="-23" y="705" on="0"/>
        <pt x="-3" y="684" on="0"/>
        <pt x="-3" y="670" on="1"/>
        <pt x="-3" y="656" on="0"/>
        <pt x="-23" y="635" on="0"/>
      </contour>
    </TTGlyph>
    <TTGlyph name="uni05BA" xMin="-72" yMin="635" xMax="-3" yMax="705">
      <contour>
        <pt x="-37" y="635" on="1"/>
        <pt x="-52" y="635" on="0"/>
        <pt x="-72" y="656" on="0"/>
        <pt x="-72" y="670" on="1"/>
        <pt x="-72" y="684" on="0"/>
        <pt x="-52" y="705" on="0"/>
        <pt x="-37" y="705" on="1"/>
        <pt x="-23" y="705" on="0"/>
        <pt x="-3" y="684" on="0"/>
        <pt x="-3" y="670" on="1"/>
        <pt x="-3" y="656" on="0"/>
        <pt x="-23" y="635" on="0"/>
      </contour>
    </TTGlyph>
    <TTGlyph name="uni05BB" xMin="-35" yMin="-357" xMax="168" yMax="-91">
      <contour>
        <pt x="0" y="-161" on="1"/>
        <pt x="-15" y="-161" on="0"/>
        <pt x="-35" y="-141" on="0"/>
        <pt x="-35" y="-126" on="1"/>
        <pt x="-35" y="-112" on="0"/>
        <pt x="-15" y="-91" on="0"/>
        <pt x="0" y="-91" on="1"/>
        <pt x="14" y="-91" on="0"/>
        <pt x="34" y="-112" on="0"/>
        <pt x="34" y="-126" on="1"/>
        <pt x="34" y="-141" on="0"/>
        <pt x="14" y="-161" on="0"/>
      </contour>
      <contour>
        <pt x="67" y="-259" on="1"/>
        <pt x="52" y="-259" on="0"/>
        <pt x="32" y="-239" on="0"/>
        <pt x="32" y="-224" on="1"/>
        <pt x="32" y="-210" on="0"/>
        <pt x="52" y="-189" on="0"/>
        <pt x="67" y="-189" on="1"/>
        <pt x="81" y="-189" on="0"/>
        <pt x="101" y="-210" on="0"/>
        <pt x="101" y="-224" on="1"/>
        <pt x="101" y="-239" on="0"/>
        <pt x="81" y="-259" on="0"/>
      </contour>
      <contour>
        <pt x="134" y="-357" on="1"/>
        <pt x="119" y="-357" on="0"/>
        <pt x="99" y="-337" on="0"/>
        <pt x="99" y="-322" on="1"/>
        <pt x="99" y="-308" on="0"/>
        <pt x="119" y="-287" on="0"/>
        <pt x="134" y="-287" on="1"/>
        <pt x="148" y="-287" on="0"/>
        <pt x="168" y="-308" on="0"/>
        <pt x="168" y="-322" on="1"/>
        <pt x="168" y="-337" on="0"/>
        <pt x="148" y="-357" on="0"/>
      </contour>
    </TTGlyph>
    <TTGlyph name="uni05BC" xMin="9" yMin="175" xMax="86" yMax="253">
      <contour>
        <pt x="48" y="175" on="1"/>
        <pt x="32" y="175" on="0"/>
        <pt x="9" y="198" on="0"/>
        <pt x="9" y="214" on="1"/>
        <pt x="9" y="230" on="0"/>
        <pt x="32" y="253" on="0"/>
        <pt x="48" y="253" on="1"/>
        <pt x="64" y="253" on="0"/>
        <pt x="86" y="230" on="0"/>
        <pt x="86" y="214" on="1"/>
        <pt x="86" y="198" on="0"/>
        <pt x="64" y="175" on="0"/>
      </contour>
    </TTGlyph>
    <TTGlyph name="uni05BE" xMin="57" yMin="497" xMax="319" yMax="556">
      <contour>
        <pt x="57" y="556" on="1"/>
        <pt x="319" y="556" on="1"/>
        <pt x="319" y="497" on="1"/>
        <pt x="57" y="497" on="1"/>
      </contour>
    </TTGlyph>
    <TTGlyph name="uni05BF" xMin="-117" yMin="641" xMax="119" yMax="687">
      <contour>
        <pt x="-117" y="641" on="1"/>
        <pt x="-117" y="687" on="1"/>
        <pt x="119" y="687" on="1"/>
        <pt x="119" y="641" on="1"/>
      </contour>
    </TTGlyph>
    <TTGlyph name="uni05C1" xMin="-107" yMin="635" xMax="-38" yMax="705">
      <contour>
        <pt x="-72" y="635" on="1"/>
        <pt x="-87" y="635" on="0"/>
        <pt x="-107" y="656" on="0"/>
        <pt x="-107" y="670" on="1"/>
        <pt x="-107" y="684" on="0"/>
        <pt x="-87" y="705" on="0"/>
        <pt x="-72" y="705" on="1"/>
        <pt x="-58" y="705" on="0"/>
        <pt x="-38" y="684" on="0"/>
        <pt x="-38" y="670" on="1"/>
        <pt x="-38" y="656" on="0"/>
        <pt x="-58" y="635" on="0"/>
      </contour>
    </TTGlyph>
    <TTGlyph name="uni05C2" xMin="54" yMin="635" xMax="123" yMax="705">
      <contour>
        <pt x="89" y="635" on="1"/>
        <pt x="74" y="635" on="0"/>
        <pt x="54" y="656" on="0"/>
        <pt x="54" y="670" on="1"/>
        <pt x="54" y="684" on="0"/>
        <pt x="74" y="705" on="0"/>
        <pt x="89" y="705" on="1"/>
        <pt x="103" y="705" on="0"/>
        <pt x="123" y="684" on="0"/>
        <pt x="123" y="670" on="1"/>
        <pt x="123" y="656" on="0"/>
        <pt x="103" y="635" on="0"/>
      </contour>
    </TTGlyph>
    <TTGlyph name="uni05D0" xMin="61" yMin="-11" xMax="598" yMax="568">
      <contour>
        <pt x="88" y="0" on="1"/>
        <pt x="88" y="87" on="0"/>
        <pt x="100" y="239" on="0"/>
        <pt x="141" y="367" on="0"/>
        <pt x="182" y="419" on="1"/>
        <pt x="155" y="443" on="0"/>
        <pt x="95" y="497" on="0"/>
        <pt x="61" y="527" on="1"/>
        <pt x="100" y="568" on="1"/>
        <pt x="159" y="516" on="0"/>
        <pt x="254" y="430" on="0"/>
        <pt x="335" y="351" on="0"/>
        <pt x="411" y="267" on="0"/>
        <pt x="452" y="217" on="1"/>
        <pt x="481" y="271" on="0"/>
        <pt x="508" y="375" on="0"/>
        <pt x="516" y="489" on="0"/>
        <pt x="516" y="556" on="1"/>
        <pt x="573" y="556" on="1"/>
        <pt x="573" y="475" on="0"/>
        <pt x="562" y="349" on="0"/>
        <pt x="524" y="237" on="0"/>
        <pt x="485" y="175" on="1"/>
        <pt x="535" y="111" on="0"/>
        <pt x="598" y="20" on="1"/>
        <pt x="551" y="-11" on="1"/>
        <pt x="502" y="57" on="0"/>
        <pt x="421" y="166" on="0"/>
        <pt x="345" y="256" on="0"/>
        <pt x="265" y="340" on="0"/>
        <pt x="219" y="384" on="1"/>
        <pt x="170" y="313" on="0"/>
        <pt x="145" y="119" on="0"/>
        <pt x="145" y="0" on="1"/>
      </contour>
    </TTGlyph>
    <TTGlyph name="uni05D0.forDagesh" xMin="61" yMin="-11" xMax="598" yMax="568">
      <contour>
        <pt x="88" y="0" on="1"/>
        <pt x="88" y="87" on="0"/>
        <pt x="100" y="239" on="0"/>
        <pt x="141" y="367" on="0"/>
        <pt x="182" y="419" on="1"/>
        <pt x="155" y="443" on="0"/>
        <pt x="95" y="497" on="0"/>
        <pt x="61" y="527" on="1"/>
        <pt x="100" y="568" on="1"/>
        <pt x="159" y="516" on="0"/>
        <pt x="254" y="430" on="0"/>
        <pt x="335" y="351" on="0"/>
        <pt x="411" y="267" on="0"/>
        <pt x="452" y="217" on="1"/>
        <pt x="481" y="271" on="0"/>
        <pt x="508" y="375" on="0"/>
        <pt x="516" y="489" on="0"/>
        <pt x="516" y="556" on="1"/>
        <pt x="573" y="556" on="1"/>
        <pt x="573" y="475" on="0"/>
        <pt x="562" y="349" on="0"/>
        <pt x="524" y="237" on="0"/>
        <pt x="485" y="175" on="1"/>
        <pt x="535" y="111" on="0"/>
        <pt x="598" y="20" on="1"/>
        <pt x="551" y="-11" on="1"/>
        <pt x="502" y="57" on="0"/>
        <pt x="421" y="166" on="0"/>
        <pt x="345" y="256" on="0"/>
        <pt x="265" y="340" on="0"/>
        <pt x="219" y="384" on="1"/>
        <pt x="170" y="313" on="0"/>
        <pt x="145" y="119" on="0"/>
        <pt x="145" y="0" on="1"/>
      </contour>
    </TTGlyph>
    <TTGlyph name="uni05D1" xMin="57" yMin="0" xMax="520" yMax="557">
      <contour>
        <pt x="57" y="0" on="1"/>
        <pt x="57" y="57" on="1"/>
        <pt x="394" y="57" on="1"/>
        <pt x="394" y="308" on="1"/>
        <pt x="394" y="413" on="0"/>
        <pt x="318" y="500" on="0"/>
        <pt x="222" y="500" on="1"/>
        <pt x="57" y="500" on="1"/>
        <pt x="57" y="557" on="1"/>
        <pt x="222" y="557" on="1"/>
        <pt x="347" y="557" on="0"/>
        <pt x="451" y="431" on="0"/>
        <pt x="451" y="308" on="1"/>
        <pt x="451" y="57" on="1"/>
        <pt x="520" y="57" on="1"/>
        <pt x="520" y="0" on="1"/>
      </contour>
    </TTGlyph>
    <TTGlyph name="uni05D2" xMin="44" yMin="-9" xMax="296" yMax="562">
      <contour>
        <pt x="53" y="-9" on="1"/>
        <pt x="44" y="53" on="1"/>
        <pt x="104" y="69" on="0"/>
        <pt x="199" y="159" on="0"/>
        <pt x="227" y="221" on="1"/>
        <pt x="224" y="278" on="1"/>
        <pt x="221" y="343" on="0"/>
        <pt x="206" y="427" on="0"/>
        <pt x="174" y="476" on="0"/>
        <pt x="120" y="500" on="0"/>
        <pt x="79" y="506" on="1"/>
        <pt x="87" y="562" on="1"/>
        <pt x="156" y="552" on="0"/>
        <pt x="238" y="498" on="0"/>
        <pt x="278" y="386" on="0"/>
        <pt x="282" y="291" on="1"/>
        <pt x="296" y="2" on="1"/>
        <pt x="239" y="-1" on="1"/>
        <pt x="231" y="149" on="1"/>
        <pt x="206" y="97" on="0"/>
        <pt x="116" y="10" on="0"/>
      </contour>
    </TTGlyph>
    <TTGlyph name="uni05D3" xMin="41" yMin="1" xMax="477" yMax="557">
      <contour>
        <pt x="355" y="1" on="1"/>
        <pt x="355" y="499" on="1"/>
        <pt x="41" y="499" on="1"/>
        <pt x="41" y="557" on="1"/>
        <pt x="477" y="557" on="1"/>
        <pt x="477" y="499" on="1"/>
        <pt x="412" y="499" on="1"/>
        <pt x="412" y="1" on="1"/>
      </contour>
    </TTGlyph>
    <TTGlyph name="uni05D4" xMin="77" yMin="0" xMax="536" yMax="556">
      <contour>
        <pt x="479" y="0" on="1"/>
        <pt x="479" y="304" on="1"/>
        <pt x="479" y="375" on="0"/>
        <pt x="447" y="461" on="0"/>
        <pt x="373" y="499" on="0"/>
        <pt x="310" y="499" on="1"/>
        <pt x="77" y="499" on="1"/>
        <pt x="77" y="556" on="1"/>
        <pt x="310" y="556" on="1"/>
        <pt x="433" y="556" on="0"/>
        <pt x="536" y="429" on="0"/>
        <pt x="536" y="304" on="1"/>
        <pt x="536" y="0" on="1"/>
      </contour>
      <contour>
        <pt x="80" y="0" on="1"/>
        <pt x="81" y="345" on="1"/>
        <pt x="138" y="345" on="1"/>
        <pt x="137" y="0" on="1"/>
      </contour>
    </TTGlyph>
    <TTGlyph name="uni05D5" xMin="50" yMin="0" xMax="224" yMax="562">
      <contour>
        <pt x="167" y="0" on="1"/>
        <pt x="167" y="346" on="1"/>
        <pt x="167" y="424" on="0"/>
        <pt x="110" y="493" on="0"/>
        <pt x="50" y="505" on="1"/>
        <pt x="58" y="562" on="1"/>
        <pt x="148" y="551" on="0"/>
        <pt x="224" y="442" on="0"/>
        <pt x="224" y="346" on="1"/>
        <pt x="224" y="0" on="1"/>
      </contour>
    </TTGlyph>
    <TTGlyph name="uni05D6" xMin="56" yMin="-15" xMax="305" yMax="557">
      <contour>
        <pt x="203" y="-15" on="1"/>
        <pt x="172" y="50" on="0"/>
        <pt x="136" y="210" on="0"/>
        <pt x="135" y="296" on="1"/>
        <pt x="134" y="348" on="0"/>
        <pt x="154" y="451" on="0"/>
        <pt x="173" y="500" on="1"/>
        <pt x="56" y="500" on="1"/>
        <pt x="56" y="557" on="1"/>
        <pt x="305" y="557" on="1"/>
        <pt x="305" y="500" on="1"/>
        <pt x="221" y="500" on="1"/>
        <pt x="203" y="458" on="0"/>
        <pt x="191" y="359" on="0"/>
        <pt x="192" y="302" on="1"/>
        <pt x="193" y="217" on="0"/>
        <pt x="228" y="72" on="0"/>
        <pt x="253" y="13" on="1"/>
      </contour>
    </TTGlyph>
    <TTGlyph name="uni05D7" xMin="77" yMin="0" xMax="544" yMax="557">
      <contour>
        <pt x="77" y="0" on="1"/>
        <pt x="77" y="557" on="1"/>
        <pt x="317" y="557" on="1"/>
        <pt x="440" y="557" on="0"/>
        <pt x="544" y="432" on="0"/>
        <pt x="544" y="308" on="1"/>
        <pt x="544" y="0" on="1"/>
        <pt x="487" y="0" on="1"/>
        <pt x="487" y="308" on="1"/>
        <pt x="487" y="413" on="0"/>
        <pt x="412" y="500" on="0"/>
        <pt x="317" y="500" on="1"/>
        <pt x="134" y="500" on="1"/>
        <pt x="134" y="0" on="1"/>
      </contour>
    </TTGlyph>
    <TTGlyph name="uni05D8" xMin="76" yMin="-11" xMax="594" yMax="562">
      <contour>
        <pt x="322" y="-11" on="1"/>
        <pt x="200" y="-11" on="0"/>
        <pt x="76" y="152" on="0"/>
        <pt x="77" y="323" on="1"/>
        <pt x="77" y="556" on="1"/>
        <pt x="134" y="556" on="1"/>
        <pt x="134" y="323" on="1"/>
        <pt x="133" y="193" on="0"/>
        <pt x="230" y="46" on="0"/>
        <pt x="322" y="46" on="1"/>
        <pt x="428" y="46" on="0"/>
        <pt x="537" y="175" on="0"/>
        <pt x="537" y="287" on="1"/>
        <pt x="537" y="400" on="0"/>
        <pt x="460" y="506" on="0"/>
        <pt x="393" y="506" on="1"/>
        <pt x="364" y="506" on="0"/>
        <pt x="311" y="488" on="0"/>
        <pt x="283" y="472" on="1"/>
        <pt x="265" y="521" on="1"/>
        <pt x="293" y="537" on="0"/>
        <pt x="364" y="562" on="0"/>
        <pt x="393" y="562" on="1"/>
        <pt x="493" y="562" on="0"/>
        <pt x="594" y="422" on="0"/>
        <pt x="594" y="287" on="1"/>
        <pt x="594" y="195" on="0"/>
        <pt x="529" y="61" on="0"/>
        <pt x="407" y="-11" on="0"/>
      </contour>
    </TTGlyph>
    <TTGlyph name="uni05D9" xMin="49" yMin="204" xMax="271" yMax="561">
      <contour>
        <pt x="239" y="204" on="1"/>
        <pt x="184" y="215" on="1"/>
        <pt x="198" y="277" on="0"/>
        <pt x="213" y="351" on="0"/>
        <pt x="213" y="381" on="1"/>
        <pt x="213" y="436" on="0"/>
        <pt x="133" y="505" on="0"/>
        <pt x="49" y="505" on="1"/>
        <pt x="55" y="561" on="1"/>
        <pt x="165" y="561" on="0"/>
        <pt x="271" y="460" on="0"/>
        <pt x="270" y="380" on="1"/>
        <pt x="269" y="346" on="0"/>
        <pt x="254" y="266" on="0"/>
      </contour>
    </TTGlyph>
    <TTGlyph name="uni05DA" xMin="61" yMin="-152" xMax="493" yMax="556">
      <contour>
        <pt x="371" y="-152" on="1"/>
        <pt x="371" y="499" on="1"/>
        <pt x="61" y="499" on="1"/>
        <pt x="61" y="556" on="1"/>
        <pt x="493" y="556" on="1"/>
        <pt x="493" y="499" on="1"/>
        <pt x="428" y="499" on="1"/>
        <pt x="428" y="-152" on="1"/>
      </contour>
    </TTGlyph>
    <TTGlyph name="uni05DB" xMin="55" yMin="0" xMax="454" yMax="557">
      <contour>
        <pt x="55" y="0" on="1"/>
        <pt x="55" y="57" on="1"/>
        <pt x="203" y="57" on="1"/>
        <pt x="308" y="57" on="0"/>
        <pt x="397" y="169" on="0"/>
        <pt x="397" y="278" on="1"/>
        <pt x="397" y="360" on="0"/>
        <pt x="349" y="457" on="0"/>
        <pt x="246" y="500" on="0"/>
        <pt x="161" y="500" on="1"/>
        <pt x="55" y="500" on="1"/>
        <pt x="55" y="557" on="1"/>
        <pt x="161" y="557" on="1"/>
        <pt x="313" y="557" on="0"/>
        <pt x="454" y="424" on="0"/>
        <pt x="454" y="278" on="1"/>
        <pt x="454" y="144" on="0"/>
        <pt x="332" y="0" on="0"/>
        <pt x="203" y="0" on="1"/>
      </contour>
    </TTGlyph>
    <TTGlyph name="uni05DC" xMin="58" yMin="-14" xMax="479" yMax="730">
      <contour>
        <pt x="183" y="-14" on="1"/>
        <pt x="168" y="41" on="1"/>
        <pt x="288" y="84" on="0"/>
        <pt x="422" y="230" on="0"/>
        <pt x="422" y="336" on="1"/>
        <pt x="422" y="423" on="0"/>
        <pt x="325" y="499" on="0"/>
        <pt x="234" y="500" on="1"/>
        <pt x="58" y="499" on="1"/>
        <pt x="58" y="730" on="1"/>
        <pt x="115" y="730" on="1"/>
        <pt x="114" y="556" on="1"/>
        <pt x="256" y="557" on="1"/>
        <pt x="318" y="557" on="0"/>
        <pt x="420" y="508" on="0"/>
        <pt x="479" y="417" on="0"/>
        <pt x="479" y="353" on="1"/>
        <pt x="479" y="219" on="0"/>
        <pt x="327" y="41" on="0"/>
      </contour>
    </TTGlyph>
    <TTGlyph name="uni05DD" xMin="77" yMin="0" xMax="549" yMax="556">
      <contour>
        <pt x="77" y="0" on="1"/>
        <pt x="77" y="556" on="1"/>
        <pt x="330" y="556" on="1"/>
        <pt x="432" y="555" on="0"/>
        <pt x="549" y="443" on="0"/>
        <pt x="549" y="344" on="1"/>
        <pt x="549" y="0" on="1"/>
      </contour>
      <contour>
        <pt x="134" y="57" on="1"/>
        <pt x="492" y="57" on="1"/>
        <pt x="492" y="344" on="1"/>
        <pt x="492" y="418" on="0"/>
        <pt x="409" y="498" on="0"/>
        <pt x="330" y="499" on="1"/>
        <pt x="134" y="499" on="1"/>
      </contour>
    </TTGlyph>
    <TTGlyph name="uni05DE" xMin="56" yMin="-7" xMax="620" yMax="566">
      <contour>
        <pt x="379" y="-7" on="1"/>
        <pt x="362" y="-7" on="0"/>
        <pt x="328" y="-1" on="0"/>
        <pt x="310" y="4" on="1"/>
        <pt x="321" y="61" on="1"/>
        <pt x="337" y="58" on="0"/>
        <pt x="369" y="52" on="0"/>
        <pt x="385" y="52" on="1"/>
        <pt x="442" y="52" on="0"/>
        <pt x="522" y="111" on="0"/>
        <pt x="563" y="209" on="0"/>
        <pt x="563" y="266" on="1"/>
        <pt x="563" y="379" on="0"/>
        <pt x="474" y="509" on="0"/>
        <pt x="381" y="509" on="1"/>
        <pt x="333" y="509" on="0"/>
        <pt x="263" y="458" on="0"/>
        <pt x="214" y="371" on="0"/>
        <pt x="183" y="261" on="0"/>
        <pt x="163" y="141" on="0"/>
        <pt x="156" y="84" on="1"/>
        <pt x="146" y="0" on="1"/>
        <pt x="91" y="0" on="1"/>
        <pt x="102" y="95" on="1"/>
        <pt x="111" y="178" on="0"/>
        <pt x="145" y="346" on="0"/>
        <pt x="177" y="413" on="1"/>
        <pt x="152" y="441" on="0"/>
        <pt x="94" y="492" on="0"/>
        <pt x="56" y="517" on="1"/>
        <pt x="85" y="566" on="1"/>
        <pt x="126" y="539" on="0"/>
        <pt x="181" y="485" on="0"/>
        <pt x="202" y="460" on="1"/>
        <pt x="233" y="508" on="0"/>
        <pt x="321" y="566" on="0"/>
        <pt x="381" y="566" on="1"/>
        <pt x="462" y="566" on="0"/>
        <pt x="568" y="490" on="0"/>
        <pt x="620" y="355" on="0"/>
        <pt x="620" y="266" on="1"/>
        <pt x="620" y="189" on="0"/>
        <pt x="566" y="66" on="0"/>
        <pt x="458" y="-7" on="0"/>
      </contour>
    </TTGlyph>
    <TTGlyph name="uni05DF" xMin="56" yMin="-152" xMax="222" yMax="560">
      <contour>
        <pt x="165" y="-152" on="1"/>
        <pt x="165" y="342" on="1"/>
        <pt x="165" y="420" on="0"/>
        <pt x="113" y="488" on="0"/>
        <pt x="56" y="503" on="1"/>
        <pt x="75" y="560" on="1"/>
        <pt x="149" y="538" on="0"/>
        <pt x="222" y="436" on="0"/>
        <pt x="222" y="342" on="1"/>
        <pt x="222" y="-152" on="1"/>
      </contour>
    </TTGlyph>
    <TTGlyph name="uni05E0" xMin="58" yMin="0" xMax="296" yMax="562">
      <contour>
        <pt x="58" y="0" on="1"/>
        <pt x="58" y="57" on="1"/>
        <pt x="239" y="57" on="1"/>
        <pt x="239" y="252" on="1"/>
        <pt x="239" y="331" on="0"/>
        <pt x="212" y="435" on="0"/>
        <pt x="142" y="494" on="0"/>
        <pt x="79" y="503" on="1"/>
        <pt x="90" y="562" on="1"/>
        <pt x="168" y="549" on="0"/>
        <pt x="258" y="473" on="0"/>
        <pt x="296" y="345" on="0"/>
        <pt x="296" y="252" on="1"/>
        <pt x="296" y="0" on="1"/>
      </contour>
    </TTGlyph>
    <TTGlyph name="uni05E1" xMin="63" yMin="-9" xMax="602" yMax="557">
      <contour>
        <pt x="334" y="-9" on="1"/>
        <pt x="275" y="-9" on="0"/>
        <pt x="182" y="42" on="0"/>
        <pt x="117" y="129" on="0"/>
        <pt x="83" y="238" on="0"/>
        <pt x="83" y="295" on="1"/>
        <pt x="83" y="400" on="0"/>
        <pt x="139" y="500" on="1"/>
        <pt x="63" y="500" on="1"/>
        <pt x="63" y="557" on="1"/>
        <pt x="340" y="557" on="1"/>
        <pt x="433" y="557" on="0"/>
        <pt x="549" y="484" on="0"/>
        <pt x="602" y="364" on="0"/>
        <pt x="602" y="294" on="1"/>
        <pt x="602" y="206" on="0"/>
        <pt x="536" y="69" on="0"/>
        <pt x="415" y="-9" on="0"/>
      </contour>
      <contour>
        <pt x="140" y="295" on="1"/>
        <pt x="140" y="250" on="0"/>
        <pt x="166" y="162" on="0"/>
        <pt x="216" y="91" on="0"/>
        <pt x="288" y="48" on="0"/>
        <pt x="334" y="48" on="1"/>
        <pt x="400" y="48" on="0"/>
        <pt x="495" y="112" on="0"/>
        <pt x="545" y="223" on="0"/>
        <pt x="545" y="294" on="1"/>
        <pt x="545" y="349" on="0"/>
        <pt x="506" y="443" on="0"/>
        <pt x="416" y="500" on="0"/>
        <pt x="340" y="500" on="1"/>
        <pt x="195" y="500" on="1"/>
        <pt x="164" y="448" on="0"/>
        <pt x="140" y="350" on="0"/>
      </contour>
    </TTGlyph>
    <TTGlyph name="uni05E2" xMin="51" yMin="-66" xMax="499" yMax="566">
      <contour>
        <pt x="69" y="-66" on="1"/>
        <pt x="53" y="-12" on="1"/>
        <pt x="100" y="2" on="0"/>
        <pt x="183" y="33" on="0"/>
        <pt x="218" y="51" on="1"/>
        <pt x="195" y="133" on="0"/>
        <pt x="156" y="263" on="0"/>
        <pt x="119" y="374" on="0"/>
        <pt x="77" y="483" on="0"/>
        <pt x="51" y="544" on="1"/>
        <pt x="104" y="566" on="1"/>
        <pt x="128" y="507" on="0"/>
        <pt x="168" y="398" on="0"/>
        <pt x="204" y="285" on="0"/>
        <pt x="242" y="156" on="0"/>
        <pt x="264" y="77" on="1"/>
        <pt x="334" y="121" on="0"/>
        <pt x="373" y="178" on="1"/>
        <pt x="417" y="244" on="0"/>
        <pt x="441" y="427" on="0"/>
        <pt x="440" y="556" on="1"/>
        <pt x="497" y="557" on="1"/>
        <pt x="499" y="418" on="0"/>
        <pt x="466" y="220" on="0"/>
        <pt x="418" y="147" on="1"/>
        <pt x="369" y="73" on="0"/>
        <pt x="194" y="-29" on="0"/>
      </contour>
    </TTGlyph>
    <TTGlyph name="uni05E3" xMin="56" yMin="-152" xMax="504" yMax="564">
      <contour>
        <pt x="447" y="-152" on="1"/>
        <pt x="447" y="285" on="1"/>
        <pt x="447" y="396" on="0"/>
        <pt x="355" y="507" on="0"/>
        <pt x="257" y="507" on="1"/>
        <pt x="190" y="507" on="0"/>
        <pt x="113" y="422" on="0"/>
        <pt x="113" y="352" on="1"/>
        <pt x="113" y="293" on="0"/>
        <pt x="193" y="228" on="0"/>
        <pt x="260" y="228" on="1"/>
        <pt x="250" y="171" on="1"/>
        <pt x="192" y="171" on="0"/>
        <pt x="105" y="216" on="0"/>
        <pt x="56" y="298" on="0"/>
        <pt x="56" y="352" on="1"/>
        <pt x="56" y="415" on="0"/>
        <pt x="108" y="511" on="0"/>
        <pt x="199" y="564" on="0"/>
        <pt x="257" y="564" on="1"/>
        <pt x="379" y="564" on="0"/>
        <pt x="504" y="419" on="0"/>
        <pt x="504" y="285" on="1"/>
        <pt x="504" y="-152" on="1"/>
      </contour>
    </TTGlyph>
    <TTGlyph name="uni05E4" xMin="56" yMin="-7" xMax="534" yMax="562">
      <contour>
        <pt x="287" y="-7" on="1"/>
        <pt x="237" y="-7" on="0"/>
        <pt x="135" y="11" on="0"/>
        <pt x="84" y="36" on="1"/>
        <pt x="103" y="89" on="1"/>
        <pt x="148" y="67" on="0"/>
        <pt x="236" y="50" on="0"/>
        <pt x="287" y="50" on="1"/>
        <pt x="348" y="50" on="0"/>
        <pt x="433" y="113" on="0"/>
        <pt x="477" y="220" on="0"/>
        <pt x="477" y="285" on="1"/>
        <pt x="477" y="349" on="0"/>
        <pt x="428" y="448" on="0"/>
        <pt x="337" y="505" on="0"/>
        <pt x="275" y="505" on="1"/>
        <pt x="198" y="505" on="0"/>
        <pt x="113" y="441" on="0"/>
        <pt x="113" y="382" on="1"/>
        <pt x="113" y="332" on="0"/>
        <pt x="187" y="285" on="0"/>
        <pt x="243" y="285" on="1"/>
        <pt x="235" y="228" on="1"/>
        <pt x="185" y="228" on="0"/>
        <pt x="104" y="263" on="0"/>
        <pt x="56" y="332" on="0"/>
        <pt x="56" y="382" on="1"/>
        <pt x="56" y="466" on="0"/>
        <pt x="176" y="562" on="0"/>
        <pt x="275" y="562" on="1"/>
        <pt x="354" y="562" on="0"/>
        <pt x="470" y="489" on="0"/>
        <pt x="534" y="364" on="0"/>
        <pt x="534" y="285" on="1"/>
        <pt x="534" y="202" on="0"/>
        <pt x="473" y="70" on="0"/>
        <pt x="362" y="-7" on="0"/>
      </contour>
    </TTGlyph>
    <TTGlyph name="uni05E5" xMin="52" yMin="-152" xMax="419" yMax="568">
      <contour>
        <pt x="166" y="-152" on="1"/>
        <pt x="166" y="150" on="1"/>
        <pt x="166" y="228" on="0"/>
        <pt x="143" y="351" on="0"/>
        <pt x="93" y="470" on="0"/>
        <pt x="52" y="541" on="1"/>
        <pt x="102" y="568" on="1"/>
        <pt x="138" y="505" on="0"/>
        <pt x="186" y="398" on="0"/>
        <pt x="215" y="295" on="0"/>
        <pt x="220" y="236" on="1"/>
        <pt x="273" y="261" on="0"/>
        <pt x="336" y="356" on="0"/>
        <pt x="362" y="483" on="0"/>
        <pt x="362" y="556" on="1"/>
        <pt x="419" y="556" on="1"/>
        <pt x="419" y="465" on="0"/>
        <pt x="380" y="311" on="0"/>
        <pt x="293" y="200" on="0"/>
        <pt x="223" y="175" on="1"/>
        <pt x="223" y="163" on="0"/>
        <pt x="223" y="150" on="1"/>
        <pt x="223" y="-152" on="1"/>
      </contour>
    </TTGlyph>
    <TTGlyph name="uni05E6" xMin="41" yMin="0" xMax="500" yMax="568">
      <contour>
        <pt x="91" y="0" on="1"/>
        <pt x="91" y="57" on="1"/>
        <pt x="418" y="57" on="1"/>
        <pt x="411" y="83" on="0"/>
        <pt x="364" y="141" on="0"/>
        <pt x="302" y="203" on="0"/>
        <pt x="274" y="234" on="1"/>
        <pt x="235" y="277" on="0"/>
        <pt x="175" y="348" on="0"/>
        <pt x="123" y="415" on="0"/>
        <pt x="71" y="490" on="0"/>
        <pt x="41" y="537" on="1"/>
        <pt x="88" y="568" on="1"/>
        <pt x="122" y="513" on="0"/>
        <pt x="183" y="427" on="0"/>
        <pt x="255" y="339" on="0"/>
        <pt x="307" y="282" on="1"/>
        <pt x="367" y="326" on="0"/>
        <pt x="432" y="466" on="0"/>
        <pt x="444" y="560" on="1"/>
        <pt x="500" y="553" on="1"/>
        <pt x="487" y="447" on="0"/>
        <pt x="411" y="292" on="0"/>
        <pt x="341" y="245" on="1"/>
        <pt x="377" y="207" on="0"/>
        <pt x="441" y="134" on="0"/>
        <pt x="481" y="64" on="0"/>
        <pt x="481" y="29" on="1"/>
        <pt x="481" y="0" on="1"/>
      </contour>
    </TTGlyph>
    <TTGlyph name="uni05E7" xMin="77" yMin="-152" xMax="547" yMax="556">
      <contour>
        <pt x="288" y="-5" on="1"/>
        <pt x="269" y="49" on="1"/>
        <pt x="372" y="87" on="0"/>
        <pt x="490" y="235" on="0"/>
        <pt x="490" y="338" on="1"/>
        <pt x="490" y="419" on="0"/>
        <pt x="396" y="498" on="0"/>
        <pt x="317" y="498" on="1"/>
        <pt x="77" y="498" on="1"/>
        <pt x="77" y="556" on="1"/>
        <pt x="317" y="556" on="1"/>
        <pt x="422" y="556" on="0"/>
        <pt x="547" y="440" on="0"/>
        <pt x="547" y="338" on="1"/>
        <pt x="547" y="255" on="0"/>
        <pt x="482" y="121" on="0"/>
        <pt x="366" y="24" on="0"/>
      </contour>
      <contour>
        <pt x="88" y="-152" on="1"/>
        <pt x="88" y="348" on="1"/>
        <pt x="145" y="348" on="1"/>
        <pt x="145" y="-152" on="1"/>
      </contour>
    </TTGlyph>
    <TTGlyph name="uni05E8" xMin="45" yMin="0" xMax="458" yMax="556">
      <contour>
        <pt x="401" y="0" on="1"/>
        <pt x="401" y="348" on="1"/>
        <pt x="401" y="417" on="0"/>
        <pt x="316" y="498" on="0"/>
        <pt x="243" y="498" on="1"/>
        <pt x="45" y="498" on="1"/>
        <pt x="45" y="556" on="1"/>
        <pt x="243" y="556" on="1"/>
        <pt x="307" y="556" on="0"/>
        <pt x="404" y="504" on="0"/>
        <pt x="458" y="410" on="0"/>
        <pt x="458" y="348" on="1"/>
        <pt x="458" y="0" on="1"/>
      </contour>
    </TTGlyph>
    <TTGlyph name="uni05E9" xMin="60" yMin="-9" xMax="657" yMax="556">
      <contour>
        <pt x="348" y="-9" on="1"/>
        <pt x="278" y="-9" on="0"/>
        <pt x="179" y="56" on="0"/>
        <pt x="113" y="169" on="0"/>
        <pt x="76" y="314" on="0"/>
        <pt x="60" y="475" on="0"/>
        <pt x="61" y="556" on="1"/>
        <pt x="117" y="556" on="1"/>
        <pt x="117" y="468" on="0"/>
        <pt x="135" y="292" on="0"/>
        <pt x="158" y="220" on="1"/>
        <pt x="208" y="232" on="0"/>
        <pt x="281" y="304" on="0"/>
        <pt x="301" y="340" on="1"/>
        <pt x="323" y="382" on="0"/>
        <pt x="341" y="490" on="0"/>
        <pt x="341" y="556" on="1"/>
        <pt x="398" y="556" on="1"/>
        <pt x="398" y="483" on="0"/>
        <pt x="376" y="360" on="0"/>
        <pt x="349" y="311" on="1"/>
        <pt x="325" y="266" on="0"/>
        <pt x="235" y="189" on="0"/>
        <pt x="175" y="177" on="1"/>
        <pt x="201" y="119" on="0"/>
        <pt x="286" y="48" on="0"/>
        <pt x="348" y="48" on="1"/>
        <pt x="425" y="48" on="0"/>
        <pt x="519" y="125" on="0"/>
        <pt x="571" y="263" on="0"/>
        <pt x="595" y="448" on="0"/>
        <pt x="600" y="556" on="1"/>
        <pt x="657" y="556" on="1"/>
        <pt x="652" y="440" on="0"/>
        <pt x="624" y="236" on="0"/>
        <pt x="560" y="81" on="0"/>
        <pt x="443" y="-7" on="0"/>
      </contour>
    </TTGlyph>
    <TTGlyph name="uni05E9.forDagesh" xMin="59" yMin="-9" xMax="655" yMax="556">
      <contour>
        <pt x="347" y="-9" on="1"/>
        <pt x="277" y="-9" on="0"/>
        <pt x="177" y="56" on="0"/>
        <pt x="111" y="169" on="0"/>
        <pt x="74" y="314" on="0"/>
        <pt x="59" y="475" on="0"/>
        <pt x="59" y="556" on="1"/>
        <pt x="115" y="556" on="1"/>
        <pt x="115" y="468" on="0"/>
        <pt x="133" y="292" on="0"/>
        <pt x="157" y="220" on="1"/>
        <pt x="207" y="232" on="0"/>
        <pt x="279" y="304" on="0"/>
        <pt x="299" y="340" on="1"/>
        <pt x="321" y="382" on="0"/>
        <pt x="340" y="490" on="0"/>
        <pt x="340" y="556" on="1"/>
        <pt x="397" y="556" on="1"/>
        <pt x="397" y="483" on="0"/>
        <pt x="374" y="360" on="0"/>
        <pt x="348" y="311" on="1"/>
        <pt x="324" y="266" on="0"/>
        <pt x="233" y="189" on="0"/>
        <pt x="173" y="177" on="1"/>
        <pt x="200" y="119" on="0"/>
        <pt x="284" y="48" on="0"/>
        <pt x="347" y="48" on="1"/>
        <pt x="423" y="48" on="0"/>
        <pt x="517" y="125" on="0"/>
        <pt x="570" y="263" on="0"/>
        <pt x="593" y="448" on="0"/>
        <pt x="598" y="556" on="1"/>
        <pt x="655" y="556" on="1"/>
        <pt x="650" y="440" on="0"/>
        <pt x="622" y="236" on="0"/>
        <pt x="558" y="81" on="0"/>
        <pt x="441" y="-7" on="0"/>
      </contour>
    </TTGlyph>
    <TTGlyph name="uni05EA" xMin="63" yMin="0" xMax="575" yMax="557">
      <contour>
        <pt x="63" y="1" on="1"/>
        <pt x="63" y="58" on="1"/>
        <pt x="146" y="58" on="1"/>
        <pt x="138" y="118" on="0"/>
        <pt x="132" y="231" on="0"/>
        <pt x="134" y="285" on="1"/>
        <pt x="136" y="339" on="0"/>
        <pt x="155" y="444" on="0"/>
        <pt x="169" y="500" on="1"/>
        <pt x="81" y="500" on="1"/>
        <pt x="81" y="557" on="1"/>
        <pt x="349" y="557" on="1"/>
        <pt x="432" y="557" on="0"/>
        <pt x="531" y="494" on="0"/>
        <pt x="575" y="376" on="0"/>
        <pt x="575" y="294" on="1"/>
        <pt x="575" y="0" on="1"/>
        <pt x="518" y="0" on="1"/>
        <pt x="518" y="294" on="1"/>
        <pt x="518" y="399" on="0"/>
        <pt x="444" y="500" on="0"/>
        <pt x="349" y="500" on="1"/>
        <pt x="221" y="500" on="1"/>
        <pt x="208" y="442" on="0"/>
        <pt x="193" y="336" on="0"/>
        <pt x="191" y="284" on="1"/>
        <pt x="189" y="219" on="0"/>
        <pt x="199" y="87" on="0"/>
        <pt x="212" y="1" on="1"/>
      </contour>
    </TTGlyph>
    <TTGlyph name="uni05F3" xMin="38" yMin="364" xMax="176" yMax="599">
      <contour>
        <pt x="38" y="364" on="1"/>
        <pt x="110" y="599" on="1"/>
        <pt x="176" y="599" on="1"/>
        <pt x="91" y="364" on="1"/>
      </contour>
    </TTGlyph>
    <TTGlyph name="uni05F4" xMin="40" yMin="364" xMax="327" yMax="599">
      <contour>
        <pt x="190" y="364" on="1"/>
        <pt x="262" y="599" on="1"/>
        <pt x="327" y="599" on="1"/>
        <pt x="242" y="364" on="1"/>
      </contour>
      <contour>
        <pt x="40" y="364" on="1"/>
        <pt x="112" y="599" on="1"/>
        <pt x="178" y="599" on="1"/>
        <pt x="93" y="364" on="1"/>
      </contour>
    </TTGlyph>
    <TTGlyph name="uni20AA" xMin="81" yMin="0" xMax="648" yMax="556">
      <contour>
        <pt x="246" y="0" on="1"/>
        <pt x="246" y="368" on="1"/>
        <pt x="303" y="368" on="1"/>
        <pt x="303" y="57" on="1"/>
        <pt x="410" y="57" on="1"/>
        <pt x="511" y="57" on="0"/>
        <pt x="591" y="151" on="0"/>
        <pt x="591" y="258" on="1"/>
        <pt x="591" y="556" on="1"/>
        <pt x="648" y="556" on="1"/>
        <pt x="648" y="258" on="1"/>
        <pt x="648" y="130" on="0"/>
        <pt x="537" y="0" on="0"/>
        <pt x="410" y="0" on="1"/>
      </contour>
      <contour>
        <pt x="81" y="0" on="1"/>
        <pt x="81" y="556" on="1"/>
        <pt x="247" y="556" on="1"/>
        <pt x="369" y="556" on="0"/>
        <pt x="476" y="424" on="0"/>
        <pt x="476" y="298" on="1"/>
        <pt x="476" y="190" on="1"/>
        <pt x="419" y="190" on="1"/>
        <pt x="419" y="298" on="1"/>
        <pt x="419" y="406" on="0"/>
        <pt x="341" y="499" on="0"/>
        <pt x="247" y="499" on="1"/>
        <pt x="138" y="499" on="1"/>
        <pt x="138" y="0" on="1"/>
      </contour>
    </TTGlyph>
    <TTGlyph name="uni2196" xMin="88" yMin="125" xMax="521" yMax="556">
      <contour>
        <pt x="88" y="226" on="1"/>
        <pt x="88" y="556" on="1"/>
        <pt x="420" y="555" on="1"/>
        <pt x="420" y="498" on="1"/>
        <pt x="186" y="499" on="1"/>
        <pt x="521" y="165" on="1"/>
        <pt x="481" y="125" on="1"/>
        <pt x="145" y="459" on="1"/>
        <pt x="145" y="226" on="1"/>
      </contour>
    </TTGlyph>
    <TTGlyph name="uni2197" xMin="77" yMin="124" xMax="509" yMax="556">
      <contour>
        <pt x="117" y="124" on="1"/>
        <pt x="77" y="164" on="1"/>
        <pt x="412" y="499" on="1"/>
        <pt x="179" y="498" on="1"/>
        <pt x="179" y="555" on="1"/>
        <pt x="509" y="556" on="1"/>
        <pt x="508" y="225" on="1"/>
        <pt x="451" y="225" on="1"/>
        <pt x="452" y="459" on="1"/>
      </contour>
    </TTGlyph>
    <TTGlyph name="uni2198" xMin="77" yMin="0" xMax="510" yMax="432">
      <contour>
        <pt x="178" y="1" on="1"/>
        <pt x="178" y="58" on="1"/>
        <pt x="412" y="57" on="1"/>
        <pt x="77" y="392" on="1"/>
        <pt x="117" y="432" on="1"/>
        <pt x="453" y="97" on="1"/>
        <pt x="452" y="330" on="1"/>
        <pt x="509" y="330" on="1"/>
        <pt x="510" y="0" on="1"/>
      </contour>
    </TTGlyph>
    <TTGlyph name="uni2199" xMin="83" yMin="0" xMax="515" yMax="433">
      <contour>
        <pt x="83" y="0" on="1"/>
        <pt x="83" y="332" on="1"/>
        <pt x="140" y="332" on="1"/>
        <pt x="140" y="99" on="1"/>
        <pt x="475" y="433" on="1"/>
        <pt x="515" y="393" on="1"/>
        <pt x="179" y="57" on="1"/>
        <pt x="413" y="58" on="1"/>
        <pt x="413" y="1" on="1"/>
      </contour>
    </TTGlyph>
    <TTGlyph name="uniFB2A" xMin="60" yMin="-9" xMax="657" yMax="705">
      <component glyphName="uni05E9" x="0" y="0" flags="0x204"/>
      <component glyphName="uni05C1" x="695" y="0" flags="0x4"/>
    </TTGlyph>
    <TTGlyph name="uniFB2B" xMin="55" yMin="-9" xMax="657" yMax="705">
      <component glyphName="uni05E9" x="0" y="0" flags="0x204"/>
      <component glyphName="uni05C2" x="1" y="0" flags="0x4"/>
    </TTGlyph>
    <TTGlyph name="uniFB2C" xMin="59" yMin="-9" xMax="655" yMax="705">
      <component glyphName="uni05E9.forDagesh" x="0" y="0" flags="0x204"/>
      <component glyphName="uni05BC" x="399" y="60" flags="0x4"/>
      <component glyphName="uni05C1" x="693" y="0" flags="0x4"/>
    </TTGlyph>
    <TTGlyph name="uniFB2D" xMin="54" yMin="-9" xMax="655" yMax="705">
      <component glyphName="uni05E9.forDagesh" x="0" y="0" flags="0x204"/>
      <component glyphName="uni05BC" x="399" y="60" flags="0x4"/>
      <component glyphName="uni05C2" x="-1" y="0" flags="0x4"/>
    </TTGlyph>
    <TTGlyph name="uniFB2E" xMin="61" yMin="-145" xMax="598" yMax="568">
      <component glyphName="uni05D0" x="0" y="0" flags="0x204"/>
      <component glyphName="uni05B7" x="342" y="0" flags="0x4"/>
    </TTGlyph>
    <TTGlyph name="uniFB2F" xMin="61" yMin="-252" xMax="598" yMax="568">
      <component glyphName="uni05D0" x="0" y="0" flags="0x204"/>
      <component glyphName="uni05B8" x="342" y="0" flags="0x4"/>
    </TTGlyph>
    <TTGlyph name="uniFB30" xMin="61" yMin="-11" xMax="598" yMax="568">
      <component glyphName="uni05D0.forDagesh" x="0" y="0" flags="0x204"/>
      <component glyphName="uni05BC" x="229" y="-103" flags="0x4"/>
    </TTGlyph>
    <TTGlyph name="uniFB31" xMin="57" yMin="0" xMax="520" yMax="557">
      <component glyphName="uni05D1" x="0" y="0" flags="0x204"/>
      <component glyphName="uni05BC" x="166" y="60" flags="0x4"/>
    </TTGlyph>
    <TTGlyph name="uniFB32" xMin="44" yMin="-9" xMax="296" yMax="562">
      <component glyphName="uni05D2" x="0" y="0" flags="0x204"/>
      <component glyphName="uni05BC" x="64" y="69" flags="0x4"/>
    </TTGlyph>
    <TTGlyph name="uniFB33" xMin="41" yMin="1" xMax="477" yMax="557">
      <component glyphName="uni05D3" x="0" y="0" flags="0x204"/>
      <component glyphName="uni05BC" x="144" y="60" flags="0x4"/>
    </TTGlyph>
    <TTGlyph name="uniFB34" xMin="77" yMin="0" xMax="536" yMax="556">
      <component glyphName="uni05D4" x="0" y="0" flags="0x204"/>
      <component glyphName="uni05BC" x="258" y="60" flags="0x4"/>
    </TTGlyph>
    <TTGlyph name="uniFB35" xMin="36" yMin="0" xMax="224" yMax="562">
      <component glyphName="uni05D5" x="0" y="0" flags="0x204"/>
      <component glyphName="uni05BC" x="26" y="60" flags="0x4"/>
    </TTGlyph>
    <TTGlyph name="uniFB36" xMin="13" yMin="-15" xMax="305" yMax="557">
      <component glyphName="uni05D6" x="0" y="0" flags="0x204"/>
      <component glyphName="uni05BC" x="3" y="60" flags="0x4"/>
    </TTGlyph>
    <TTGlyph name="uniFB38" xMin="76" yMin="-11" xMax="594" yMax="562">
      <component glyphName="uni05D8" x="0" y="0" flags="0x204"/>
      <component glyphName="uni05BC" x="282" y="68" flags="0x4"/>
    </TTGlyph>
    <TTGlyph name="uniFB39" xMin="49" yMin="204" xMax="271" yMax="561">
      <component glyphName="uni05D9" x="0" y="0" flags="0x204"/>
      <component glyphName="uni05BC" x="51" y="124" flags="0x4"/>
    </TTGlyph>
    <TTGlyph name="uniFB3A" xMin="61" yMin="-152" xMax="493" yMax="556">
      <component glyphName="uni05DA" x="0" y="0" flags="0x204"/>
      <component glyphName="uni05BC" x="165" y="60" flags="0x4"/>
    </TTGlyph>
    <TTGlyph name="uniFB3B" xMin="55" yMin="0" xMax="454" yMax="557">
      <component glyphName="uni05DB" x="0" y="0" flags="0x204"/>
      <component glyphName="uni05BC" x="142" y="60" flags="0x4"/>
    </TTGlyph>
    <TTGlyph name="uniFB3C" xMin="58" yMin="-14" xMax="479" yMax="730">
      <component glyphName="uni05DC" x="0" y="0" flags="0x204"/>
      <component glyphName="uni05BC" x="172" y="75" flags="0x4"/>
    </TTGlyph>
    <TTGlyph name="uniFB3E" xMin="56" yMin="-7" xMax="620" yMax="566">
      <component glyphName="uni05DE" x="0" y="0" flags="0x204"/>
      <component glyphName="uni05BC" x="326" y="60" flags="0x4"/>
    </TTGlyph>
    <TTGlyph name="uniFB40" xMin="58" yMin="0" xMax="296" yMax="562">
      <component glyphName="uni05E0" x="0" y="0" flags="0x204"/>
      <component glyphName="uni05BC" x="75" y="60" flags="0x4"/>
    </TTGlyph>
    <TTGlyph name="uniFB41" xMin="63" yMin="-9" xMax="602" yMax="557">
      <component glyphName="uni05E1" x="0" y="0" flags="0x204"/>
      <component glyphName="uni05BC" x="292" y="72" flags="0x4"/>
    </TTGlyph>
    <TTGlyph name="uniFB43" xMin="56" yMin="-152" xMax="504" yMax="564">
      <component glyphName="uni05E3" x="0" y="0" flags="0x204"/>
      <component glyphName="uni05BC" x="296" y="1" flags="0x4"/>
    </TTGlyph>
    <TTGlyph name="uniFB44" xMin="56" yMin="-7" xMax="534" yMax="562">
      <component glyphName="uni05E4" x="0" y="0" flags="0x204"/>
      <component glyphName="uni05BC" x="301" y="60" flags="0x4"/>
    </TTGlyph>
    <TTGlyph name="uniFB46" xMin="41" yMin="0" xMax="500" yMax="568">
      <component glyphName="uni05E6" x="0" y="0" flags="0x204"/>
      <component glyphName="uni05BC" x="105" y="1" flags="0x4"/>
    </TTGlyph>
    <TTGlyph name="uniFB47" xMin="77" yMin="-152" xMax="547" yMax="556">
      <component glyphName="uni05E7" x="0" y="0" flags="0x204"/>
      <component glyphName="uni05BC" x="256" y="73" flags="0x4"/>
    </TTGlyph>
    <TTGlyph name="uniFB48" xMin="45" yMin="0" xMax="458" yMax="556">
      <component glyphName="uni05E8" x="0" y="0" flags="0x204"/>
      <component glyphName="uni05BC" x="166" y="60" flags="0x4"/>
    </TTGlyph>
    <TTGlyph name="uniFB49" xMin="59" yMin="-9" xMax="655" yMax="556">
      <component glyphName="uni05E9.forDagesh" x="0" y="0" flags="0x204"/>
      <component glyphName="uni05BC" x="399" y="60" flags="0x4"/>
    </TTGlyph>
    <TTGlyph name="uniFB4A" xMin="63" yMin="0" xMax="575" yMax="557">
      <component glyphName="uni05EA" x="0" y="0" flags="0x204"/>
      <component glyphName="uni05BC" x="306" y="60" flags="0x4"/>
    </TTGlyph>
    <TTGlyph name="uniFB4B" xMin="50" yMin="0" xMax="224" yMax="705">
      <component glyphName="uni05D5" x="0" y="0" flags="0x204"/>
      <component glyphName="uni05B9" x="160" y="0" flags="0x4"/>
    </TTGlyph>
    <TTGlyph name="zero" xMin="52" yMin="-11" xMax="488" yMax="613">
      <contour>
        <pt x="270" y="-11" on="1"/>
        <pt x="208" y="-11" on="0"/>
        <pt x="109" y="64" on="0"/>
        <pt x="52" y="205" on="0"/>
        <pt x="52" y="303" on="1"/>
        <pt x="52" y="401" on="0"/>
        <pt x="111" y="540" on="0"/>
        <pt x="210" y="613" on="0"/>
        <pt x="270" y="613" on="1"/>
        <pt x="331" y="613" on="0"/>
        <pt x="430" y="539" on="0"/>
        <pt x="488" y="400" on="0"/>
        <pt x="488" y="303" on="1"/>
        <pt x="488" y="203" on="0"/>
        <pt x="430" y="63" on="0"/>
        <pt x="331" y="-11" on="0"/>
      </contour>
      <contour>
        <pt x="270" y="46" on="1"/>
        <pt x="338" y="46" on="0"/>
        <pt x="431" y="179" on="0"/>
        <pt x="431" y="303" on="1"/>
        <pt x="431" y="385" on="0"/>
        <pt x="388" y="498" on="0"/>
        <pt x="315" y="556" on="0"/>
        <pt x="270" y="556" on="1"/>
        <pt x="225" y="556" on="0"/>
        <pt x="152" y="497" on="0"/>
        <pt x="109" y="384" on="0"/>
        <pt x="109" y="303" on="1"/>
        <pt x="109" y="220" on="0"/>
        <pt x="153" y="105" on="0"/>
        <pt x="226" y="46" on="0"/>
      </contour>
    </TTGlyph>
</ttFont>
